<mxfile host="65bd71144e">
    <diagram id="XZtw1QwDSvXThvEGQwrH" name="Search User (Performance)">
        <mxGraphModel dx="863" dy="650" grid="0" gridSize="10" guides="0" tooltips="1" connect="1" arrows="1" fold="1" page="1" pageScale="1" pageWidth="850" pageHeight="1100" math="0" shadow="0">
            <root>
                <mxCell id="0"/>
                <mxCell id="1" parent="0"/>
                <mxCell id="6" style="edgeStyle=none;html=1;exitX=1;exitY=0.5;exitDx=0;exitDy=0;" parent="1" source="2" target="5" edge="1">
                    <mxGeometry relative="1" as="geometry"/>
                </mxCell>
                <mxCell id="2" value="User" style="rounded=0;whiteSpace=wrap;html=1;" parent="1" vertex="1">
                    <mxGeometry x="220" y="250" width="90" height="40" as="geometry"/>
                </mxCell>
                <mxCell id="9" style="edgeStyle=none;html=1;exitX=0.5;exitY=1;exitDx=0;exitDy=0;entryX=0.5;entryY=0;entryDx=0;entryDy=0;shape=flexArrow;startArrow=block;" parent="1" source="5" target="7" edge="1">
                    <mxGeometry relative="1" as="geometry"/>
                </mxCell>
                <mxCell id="5" value="Mobile System" style="ellipse;whiteSpace=wrap;html=1;" parent="1" vertex="1">
                    <mxGeometry x="420" y="230" width="120" height="80" as="geometry"/>
                </mxCell>
                <mxCell id="7" value="Search System" style="ellipse;whiteSpace=wrap;html=1;" parent="1" vertex="1">
                    <mxGeometry x="420" y="400" width="120" height="80" as="geometry"/>
                </mxCell>
                <mxCell id="11" style="edgeStyle=none;html=1;exitX=1;exitY=0.5;exitDx=0;exitDy=0;exitPerimeter=0;startArrow=oval;endArrow=oval;endFill=1;startFill=1;" parent="1" source="10" target="7" edge="1">
                    <mxGeometry relative="1" as="geometry"/>
                </mxCell>
                <mxCell id="10" value="MySQL" style="shape=cylinder3;whiteSpace=wrap;html=1;boundedLbl=1;backgroundOutline=1;size=15;" parent="1" vertex="1">
                    <mxGeometry x="235" y="400" width="60" height="80" as="geometry"/>
                </mxCell>
                <mxCell id="30" value="" style="group" parent="1" vertex="1" connectable="0">
                    <mxGeometry x="160" y="510" width="500" height="200" as="geometry"/>
                </mxCell>
                <mxCell id="13" value="" style="rounded=0;whiteSpace=wrap;html=1;container=0;" parent="30" vertex="1">
                    <mxGeometry width="500" height="200" as="geometry"/>
                </mxCell>
                <mxCell id="14" value="Legend" style="text;html=1;strokeColor=default;fillColor=none;align=center;verticalAlign=middle;whiteSpace=wrap;rounded=0;container=0;" parent="30" vertex="1">
                    <mxGeometry width="68.97196261682242" height="30" as="geometry"/>
                </mxCell>
                <mxCell id="15" value="" style="rounded=0;whiteSpace=wrap;html=1;strokeColor=default;container=0;" parent="30" vertex="1">
                    <mxGeometry x="22" y="60" width="78" height="40" as="geometry"/>
                </mxCell>
                <mxCell id="16" value="Entity" style="text;html=1;strokeColor=none;fillColor=none;align=center;verticalAlign=middle;whiteSpace=wrap;rounded=0;container=0;" parent="30" vertex="1">
                    <mxGeometry x="100" y="65" width="60" height="30" as="geometry"/>
                </mxCell>
                <mxCell id="17" value="A interact with B" style="text;html=1;strokeColor=none;fillColor=none;align=center;verticalAlign=middle;whiteSpace=wrap;rounded=0;container=0;" parent="30" vertex="1">
                    <mxGeometry x="61.669445983379546" y="140" width="103.90581717451524" height="30" as="geometry"/>
                </mxCell>
                <mxCell id="18" value="" style="endArrow=classic;html=1;" parent="30" target="17" edge="1">
                    <mxGeometry width="50" height="50" relative="1" as="geometry">
                        <mxPoint x="21.99631578947367" y="155" as="sourcePoint"/>
                        <mxPoint x="78.67221606648195" y="155" as="targetPoint"/>
                    </mxGeometry>
                </mxCell>
                <mxCell id="19" value="" style="endArrow=classic;startArrow=classic;html=1;shape=flexArrow;" parent="30" target="20" edge="1">
                    <mxGeometry width="50" height="50" relative="1" as="geometry">
                        <mxPoint x="195.64501385041547" y="155" as="sourcePoint"/>
                        <mxPoint x="120.07714681440444" y="155" as="targetPoint"/>
                    </mxGeometry>
                </mxCell>
                <mxCell id="20" value="HTTP" style="text;html=1;strokeColor=none;fillColor=none;align=center;verticalAlign=middle;whiteSpace=wrap;rounded=0;container=0;" parent="30" vertex="1">
                    <mxGeometry x="261.7668975069252" y="140" width="56.67590027700831" height="30" as="geometry"/>
                </mxCell>
                <mxCell id="21" value="" style="endArrow=oval;startArrow=oval;html=1;startFill=1;endFill=1;" parent="30" target="22" edge="1">
                    <mxGeometry width="50" height="50" relative="1" as="geometry">
                        <mxPoint x="365.9986980609418" y="155" as="sourcePoint"/>
                        <mxPoint x="309.32279778393354" y="155" as="targetPoint"/>
                    </mxGeometry>
                </mxCell>
                <mxCell id="22" value="DB Connector" style="text;html=1;strokeColor=none;fillColor=none;align=center;verticalAlign=middle;whiteSpace=wrap;rounded=0;container=0;" parent="30" vertex="1">
                    <mxGeometry x="403.78263157894736" y="140" width="94.45983379501385" height="30" as="geometry"/>
                </mxCell>
                <mxCell id="23" value="" style="shape=cylinder3;whiteSpace=wrap;html=1;boundedLbl=1;backgroundOutline=1;size=15;rounded=0;strokeColor=default;container=0;" parent="30" vertex="1">
                    <mxGeometry x="366.00058171745155" y="47.5" width="45.340720221606645" height="65" as="geometry"/>
                </mxCell>
                <mxCell id="24" value="Database" style="text;html=1;strokeColor=none;fillColor=none;align=center;verticalAlign=middle;whiteSpace=wrap;rounded=0;container=0;" parent="30" vertex="1">
                    <mxGeometry x="422.67648199445983" y="70" width="56.67590027700831" height="30" as="geometry"/>
                </mxCell>
                <mxCell id="27" value="" style="ellipse;whiteSpace=wrap;html=1;rounded=0;strokeColor=default;container=0;" parent="30" vertex="1">
                    <mxGeometry x="195.64288088642655" y="60" width="73.6786703601108" height="40" as="geometry"/>
                </mxCell>
                <mxCell id="28" value="System" style="text;html=1;strokeColor=none;fillColor=none;align=center;verticalAlign=middle;whiteSpace=wrap;rounded=0;container=0;" parent="30" vertex="1">
                    <mxGeometry x="269.32155124653735" y="65" width="56.67590027700831" height="30" as="geometry"/>
                </mxCell>
            </root>
        </mxGraphModel>
    </diagram>
    <diagram id="qfWGLHSQt6Hr2PxFRLV3" name="Chat (Performance)">
        <mxGraphModel dx="906" dy="682" grid="0" gridSize="10" guides="1" tooltips="1" connect="1" arrows="1" fold="1" page="1" pageScale="1" pageWidth="850" pageHeight="1100" math="0" shadow="0">
            <root>
                <mxCell id="0"/>
                <mxCell id="1" parent="0"/>
                <mxCell id="nfdZv90XNEua2hiSBVAx-1" style="edgeStyle=none;html=1;exitX=1;exitY=0.5;exitDx=0;exitDy=0;" parent="1" source="nfdZv90XNEua2hiSBVAx-2" target="nfdZv90XNEua2hiSBVAx-4" edge="1">
                    <mxGeometry relative="1" as="geometry"/>
                </mxCell>
                <mxCell id="nfdZv90XNEua2hiSBVAx-2" value="User" style="rounded=0;whiteSpace=wrap;html=1;" parent="1" vertex="1">
                    <mxGeometry x="175" y="80" width="90" height="40" as="geometry"/>
                </mxCell>
                <mxCell id="nfdZv90XNEua2hiSBVAx-4" value="Mobile System" style="ellipse;whiteSpace=wrap;html=1;" parent="1" vertex="1">
                    <mxGeometry x="360" y="60" width="120" height="80" as="geometry"/>
                </mxCell>
                <mxCell id="nfdZv90XNEua2hiSBVAx-5" value="Chat System" style="ellipse;whiteSpace=wrap;html=1;" parent="1" vertex="1">
                    <mxGeometry x="360" y="230" width="120" height="80" as="geometry"/>
                </mxCell>
                <mxCell id="nfdZv90XNEua2hiSBVAx-6" style="edgeStyle=none;html=1;exitX=1;exitY=0.5;exitDx=0;exitDy=0;exitPerimeter=0;startArrow=oval;endArrow=oval;endFill=1;startFill=1;" parent="1" source="nfdZv90XNEua2hiSBVAx-7" target="nfdZv90XNEua2hiSBVAx-5" edge="1">
                    <mxGeometry relative="1" as="geometry"/>
                </mxCell>
                <mxCell id="nfdZv90XNEua2hiSBVAx-7" value="MySQL" style="shape=cylinder3;whiteSpace=wrap;html=1;boundedLbl=1;backgroundOutline=1;size=15;" parent="1" vertex="1">
                    <mxGeometry x="220" y="230" width="60" height="80" as="geometry"/>
                </mxCell>
                <mxCell id="nfdZv90XNEua2hiSBVAx-8" value="" style="group" parent="1" vertex="1" connectable="0">
                    <mxGeometry x="180" y="360" width="500" height="200" as="geometry"/>
                </mxCell>
                <mxCell id="nfdZv90XNEua2hiSBVAx-9" value="" style="rounded=0;whiteSpace=wrap;html=1;container=0;" parent="nfdZv90XNEua2hiSBVAx-8" vertex="1">
                    <mxGeometry width="500" height="200" as="geometry"/>
                </mxCell>
                <mxCell id="nfdZv90XNEua2hiSBVAx-10" value="Legend" style="text;html=1;strokeColor=default;fillColor=none;align=center;verticalAlign=middle;whiteSpace=wrap;rounded=0;container=0;" parent="nfdZv90XNEua2hiSBVAx-8" vertex="1">
                    <mxGeometry width="68.97196261682242" height="30" as="geometry"/>
                </mxCell>
                <mxCell id="nfdZv90XNEua2hiSBVAx-11" value="" style="rounded=0;whiteSpace=wrap;html=1;strokeColor=default;container=0;" parent="nfdZv90XNEua2hiSBVAx-8" vertex="1">
                    <mxGeometry x="22" y="60" width="78" height="40" as="geometry"/>
                </mxCell>
                <mxCell id="nfdZv90XNEua2hiSBVAx-12" value="Entity" style="text;html=1;strokeColor=none;fillColor=none;align=center;verticalAlign=middle;whiteSpace=wrap;rounded=0;container=0;" parent="nfdZv90XNEua2hiSBVAx-8" vertex="1">
                    <mxGeometry x="100" y="65" width="60" height="30" as="geometry"/>
                </mxCell>
                <mxCell id="nfdZv90XNEua2hiSBVAx-13" value="A interact with B" style="text;html=1;strokeColor=none;fillColor=none;align=center;verticalAlign=middle;whiteSpace=wrap;rounded=0;container=0;" parent="nfdZv90XNEua2hiSBVAx-8" vertex="1">
                    <mxGeometry x="61.669445983379546" y="140" width="103.90581717451524" height="30" as="geometry"/>
                </mxCell>
                <mxCell id="nfdZv90XNEua2hiSBVAx-14" value="" style="endArrow=classic;html=1;" parent="nfdZv90XNEua2hiSBVAx-8" target="nfdZv90XNEua2hiSBVAx-13" edge="1">
                    <mxGeometry width="50" height="50" relative="1" as="geometry">
                        <mxPoint x="21.99631578947367" y="155" as="sourcePoint"/>
                        <mxPoint x="78.67221606648195" y="155" as="targetPoint"/>
                    </mxGeometry>
                </mxCell>
                <mxCell id="nfdZv90XNEua2hiSBVAx-16" value="Socket.io" style="text;html=1;strokeColor=none;fillColor=none;align=center;verticalAlign=middle;whiteSpace=wrap;rounded=0;container=0;" parent="nfdZv90XNEua2hiSBVAx-8" vertex="1">
                    <mxGeometry x="261.7668975069252" y="140" width="56.67590027700831" height="30" as="geometry"/>
                </mxCell>
                <mxCell id="nfdZv90XNEua2hiSBVAx-17" value="" style="endArrow=oval;startArrow=oval;html=1;startFill=1;endFill=1;" parent="nfdZv90XNEua2hiSBVAx-8" target="nfdZv90XNEua2hiSBVAx-18" edge="1">
                    <mxGeometry width="50" height="50" relative="1" as="geometry">
                        <mxPoint x="365.9986980609418" y="155" as="sourcePoint"/>
                        <mxPoint x="309.32279778393354" y="155" as="targetPoint"/>
                    </mxGeometry>
                </mxCell>
                <mxCell id="nfdZv90XNEua2hiSBVAx-18" value="DB Connector" style="text;html=1;strokeColor=none;fillColor=none;align=center;verticalAlign=middle;whiteSpace=wrap;rounded=0;container=0;" parent="nfdZv90XNEua2hiSBVAx-8" vertex="1">
                    <mxGeometry x="403.78263157894736" y="140" width="94.45983379501385" height="30" as="geometry"/>
                </mxCell>
                <mxCell id="nfdZv90XNEua2hiSBVAx-19" value="" style="shape=cylinder3;whiteSpace=wrap;html=1;boundedLbl=1;backgroundOutline=1;size=15;rounded=0;strokeColor=default;container=0;" parent="nfdZv90XNEua2hiSBVAx-8" vertex="1">
                    <mxGeometry x="366.00058171745155" y="47.5" width="45.340720221606645" height="65" as="geometry"/>
                </mxCell>
                <mxCell id="nfdZv90XNEua2hiSBVAx-20" value="Database" style="text;html=1;strokeColor=none;fillColor=none;align=center;verticalAlign=middle;whiteSpace=wrap;rounded=0;container=0;" parent="nfdZv90XNEua2hiSBVAx-8" vertex="1">
                    <mxGeometry x="422.67648199445983" y="70" width="56.67590027700831" height="30" as="geometry"/>
                </mxCell>
                <mxCell id="nfdZv90XNEua2hiSBVAx-21" value="" style="ellipse;whiteSpace=wrap;html=1;rounded=0;strokeColor=default;container=0;" parent="nfdZv90XNEua2hiSBVAx-8" vertex="1">
                    <mxGeometry x="195.64288088642655" y="60" width="73.6786703601108" height="40" as="geometry"/>
                </mxCell>
                <mxCell id="nfdZv90XNEua2hiSBVAx-22" value="System" style="text;html=1;strokeColor=none;fillColor=none;align=center;verticalAlign=middle;whiteSpace=wrap;rounded=0;container=0;" parent="nfdZv90XNEua2hiSBVAx-8" vertex="1">
                    <mxGeometry x="269.32155124653735" y="65" width="56.67590027700831" height="30" as="geometry"/>
                </mxCell>
                <mxCell id="iXaG5JbE-hB_cTkM6QvQ-5" value="" style="endArrow=classic;html=1;entryX=0.461;entryY=-0.004;entryDx=0;entryDy=0;entryPerimeter=0;" parent="nfdZv90XNEua2hiSBVAx-8" edge="1">
                    <mxGeometry width="50" height="50" relative="1" as="geometry">
                        <mxPoint x="261.77" y="159.66999999999996" as="sourcePoint"/>
                        <mxPoint x="193.80999999999995" y="159.66999999999996" as="targetPoint"/>
                    </mxGeometry>
                </mxCell>
                <mxCell id="iXaG5JbE-hB_cTkM6QvQ-6" value="" style="endArrow=none;html=1;endFill=0;startArrow=classic;startFill=1;entryX=0.567;entryY=-0.012;entryDx=0;entryDy=0;entryPerimeter=0;exitX=-0.066;exitY=0.3;exitDx=0;exitDy=0;exitPerimeter=0;" parent="nfdZv90XNEua2hiSBVAx-8" source="nfdZv90XNEua2hiSBVAx-16" edge="1">
                    <mxGeometry width="50" height="50" relative="1" as="geometry">
                        <mxPoint x="257.01" y="150.30999999999995" as="sourcePoint"/>
                        <mxPoint x="191.76999999999998" y="149.66999999999996" as="targetPoint"/>
                        <Array as="points">
                            <mxPoint x="209.39" y="149.66999999999996"/>
                        </Array>
                    </mxGeometry>
                </mxCell>
                <mxCell id="nfdZv90XNEua2hiSBVAx-23" style="edgeStyle=none;html=1;exitX=0;exitY=0.5;exitDx=0;exitDy=0;entryX=1;entryY=0.5;entryDx=0;entryDy=0;" parent="1" source="nfdZv90XNEua2hiSBVAx-24" target="nfdZv90XNEua2hiSBVAx-4" edge="1">
                    <mxGeometry relative="1" as="geometry">
                        <mxPoint x="765" y="100" as="targetPoint"/>
                    </mxGeometry>
                </mxCell>
                <mxCell id="nfdZv90XNEua2hiSBVAx-24" value="User" style="rounded=0;whiteSpace=wrap;html=1;" parent="1" vertex="1">
                    <mxGeometry x="580" y="80" width="90" height="40" as="geometry"/>
                </mxCell>
                <mxCell id="dIO-bamwLIvWyfaEk9ae-1" value="" style="rounded=0;whiteSpace=wrap;html=1;strokeColor=default;dashed=1;" parent="1" vertex="1">
                    <mxGeometry x="225" y="660" width="370" height="230" as="geometry"/>
                </mxCell>
                <mxCell id="dIO-bamwLIvWyfaEk9ae-2" value="Chat System" style="text;html=1;strokeColor=default;fillColor=none;align=center;verticalAlign=middle;whiteSpace=wrap;rounded=0;" parent="1" vertex="1">
                    <mxGeometry x="225" y="660" width="110" height="30" as="geometry"/>
                </mxCell>
                <mxCell id="9HCrFdb1fYrewuC1gWVT-1" style="edgeStyle=none;html=1;exitX=0.5;exitY=1;exitDx=0;exitDy=0;entryX=0.5;entryY=0;entryDx=0;entryDy=0;startArrow=none;startFill=0;endArrow=blockThin;endFill=1;" parent="1" source="PEk9jSZ8Dcxl5CuNu6pI-1" target="PEk9jSZ8Dcxl5CuNu6pI-3" edge="1">
                    <mxGeometry relative="1" as="geometry"/>
                </mxCell>
                <mxCell id="PEk9jSZ8Dcxl5CuNu6pI-1" value="Receive Partner" style="ellipse;whiteSpace=wrap;html=1;strokeColor=default;" parent="1" vertex="1">
                    <mxGeometry x="372.5" y="715" width="95" height="50" as="geometry"/>
                </mxCell>
                <mxCell id="9HCrFdb1fYrewuC1gWVT-2" style="edgeStyle=none;html=1;exitX=0;exitY=0.5;exitDx=0;exitDy=0;startArrow=none;startFill=0;endArrow=block;endFill=1;" parent="1" source="PEk9jSZ8Dcxl5CuNu6pI-3" target="PEk9jSZ8Dcxl5CuNu6pI-4" edge="1">
                    <mxGeometry relative="1" as="geometry"/>
                </mxCell>
                <mxCell id="iXaG5JbE-hB_cTkM6QvQ-10" style="edgeStyle=none;html=1;exitX=1;exitY=0.5;exitDx=0;exitDy=0;startArrow=none;startFill=0;endArrow=classic;endFill=1;" parent="1" source="PEk9jSZ8Dcxl5CuNu6pI-3" target="iXaG5JbE-hB_cTkM6QvQ-9" edge="1">
                    <mxGeometry relative="1" as="geometry"/>
                </mxCell>
                <mxCell id="PEk9jSZ8Dcxl5CuNu6pI-3" value="Socket" style="ellipse;whiteSpace=wrap;html=1;strokeColor=default;" parent="1" vertex="1">
                    <mxGeometry x="380" y="810" width="80" height="50" as="geometry"/>
                </mxCell>
                <mxCell id="PEk9jSZ8Dcxl5CuNu6pI-7" style="edgeStyle=none;html=1;exitX=0;exitY=0.5;exitDx=0;exitDy=0;startArrow=oval;startFill=1;endArrow=oval;endFill=1;" parent="1" source="PEk9jSZ8Dcxl5CuNu6pI-4" edge="1">
                    <mxGeometry relative="1" as="geometry">
                        <mxPoint x="195" y="850" as="targetPoint"/>
                    </mxGeometry>
                </mxCell>
                <mxCell id="PEk9jSZ8Dcxl5CuNu6pI-4" value="Store Partner" style="ellipse;whiteSpace=wrap;html=1;strokeColor=default;" parent="1" vertex="1">
                    <mxGeometry x="245" y="810" width="90" height="50" as="geometry"/>
                </mxCell>
                <mxCell id="iXaG5JbE-hB_cTkM6QvQ-3" value="" style="endArrow=classic;html=1;exitX=0.444;exitY=1.004;exitDx=0;exitDy=0;exitPerimeter=0;entryX=0.461;entryY=-0.004;entryDx=0;entryDy=0;entryPerimeter=0;" parent="1" source="nfdZv90XNEua2hiSBVAx-4" target="nfdZv90XNEua2hiSBVAx-5" edge="1">
                    <mxGeometry width="50" height="50" relative="1" as="geometry">
                        <mxPoint x="390" y="340" as="sourcePoint"/>
                        <mxPoint x="440" y="290" as="targetPoint"/>
                    </mxGeometry>
                </mxCell>
                <mxCell id="iXaG5JbE-hB_cTkM6QvQ-4" value="" style="endArrow=none;html=1;exitX=0.55;exitY=0.996;exitDx=0;exitDy=0;exitPerimeter=0;endFill=0;startArrow=classic;startFill=1;entryX=0.567;entryY=-0.012;entryDx=0;entryDy=0;entryPerimeter=0;" parent="1" source="nfdZv90XNEua2hiSBVAx-4" target="nfdZv90XNEua2hiSBVAx-5" edge="1">
                    <mxGeometry width="50" height="50" relative="1" as="geometry">
                        <mxPoint x="417.28" y="148.32000000000005" as="sourcePoint"/>
                        <mxPoint x="426" y="220" as="targetPoint"/>
                    </mxGeometry>
                </mxCell>
                <mxCell id="iXaG5JbE-hB_cTkM6QvQ-8" value="" style="endArrow=classic;html=1;entryX=0.5;entryY=0;entryDx=0;entryDy=0;" parent="1" target="PEk9jSZ8Dcxl5CuNu6pI-1" edge="1">
                    <mxGeometry width="50" height="50" relative="1" as="geometry">
                        <mxPoint x="420" y="630" as="sourcePoint"/>
                        <mxPoint x="385" y="670" as="targetPoint"/>
                    </mxGeometry>
                </mxCell>
                <mxCell id="iXaG5JbE-hB_cTkM6QvQ-11" style="edgeStyle=none;html=1;exitX=0.5;exitY=0;exitDx=0;exitDy=0;startArrow=none;startFill=0;endArrow=classic;endFill=1;" parent="1" source="iXaG5JbE-hB_cTkM6QvQ-9" edge="1">
                    <mxGeometry relative="1" as="geometry">
                        <mxPoint x="540" y="630" as="targetPoint"/>
                    </mxGeometry>
                </mxCell>
                <mxCell id="iXaG5JbE-hB_cTkM6QvQ-9" value="Send Partner" style="ellipse;whiteSpace=wrap;html=1;strokeColor=default;" parent="1" vertex="1">
                    <mxGeometry x="495" y="810" width="90" height="50" as="geometry"/>
                </mxCell>
                <mxCell id="iXaG5JbE-hB_cTkM6QvQ-14" value="" style="rounded=0;whiteSpace=wrap;html=1;container=0;" parent="1" vertex="1">
                    <mxGeometry x="175" y="910" width="500" height="130" as="geometry"/>
                </mxCell>
                <mxCell id="iXaG5JbE-hB_cTkM6QvQ-15" value="Legend" style="text;html=1;strokeColor=default;fillColor=none;align=center;verticalAlign=middle;whiteSpace=wrap;rounded=0;container=0;" parent="1" vertex="1">
                    <mxGeometry x="175" y="910" width="68.97196261682242" height="30" as="geometry"/>
                </mxCell>
                <mxCell id="iXaG5JbE-hB_cTkM6QvQ-18" value="A interact with B" style="text;html=1;strokeColor=none;fillColor=none;align=center;verticalAlign=middle;whiteSpace=wrap;rounded=0;container=0;" parent="1" vertex="1">
                    <mxGeometry x="387.66944598337955" y="975" width="103.90581717451524" height="30" as="geometry"/>
                </mxCell>
                <mxCell id="iXaG5JbE-hB_cTkM6QvQ-19" value="" style="endArrow=classic;html=1;" parent="1" target="iXaG5JbE-hB_cTkM6QvQ-18" edge="1">
                    <mxGeometry width="50" height="50" relative="1" as="geometry">
                        <mxPoint x="347.99631578947367" y="990" as="sourcePoint"/>
                        <mxPoint x="404.67221606648195" y="990" as="targetPoint"/>
                    </mxGeometry>
                </mxCell>
                <mxCell id="iXaG5JbE-hB_cTkM6QvQ-21" value="" style="endArrow=oval;startArrow=oval;html=1;startFill=1;endFill=1;" parent="1" target="iXaG5JbE-hB_cTkM6QvQ-22" edge="1">
                    <mxGeometry width="50" height="50" relative="1" as="geometry">
                        <mxPoint x="514.9986980609418" y="990" as="sourcePoint"/>
                        <mxPoint x="458.32279778393354" y="990" as="targetPoint"/>
                    </mxGeometry>
                </mxCell>
                <mxCell id="iXaG5JbE-hB_cTkM6QvQ-22" value="DB Connector" style="text;html=1;strokeColor=none;fillColor=none;align=center;verticalAlign=middle;whiteSpace=wrap;rounded=0;container=0;" parent="1" vertex="1">
                    <mxGeometry x="552.7826315789473" y="975" width="94.45983379501385" height="30" as="geometry"/>
                </mxCell>
                <mxCell id="iXaG5JbE-hB_cTkM6QvQ-25" value="" style="ellipse;whiteSpace=wrap;html=1;rounded=0;strokeColor=default;container=0;" parent="1" vertex="1">
                    <mxGeometry x="195.00288088642657" y="970" width="73.6786703601108" height="40" as="geometry"/>
                </mxCell>
                <mxCell id="iXaG5JbE-hB_cTkM6QvQ-26" value="Process" style="text;html=1;strokeColor=none;fillColor=none;align=center;verticalAlign=middle;whiteSpace=wrap;rounded=0;container=0;" parent="1" vertex="1">
                    <mxGeometry x="268.68155124653737" y="975" width="56.67590027700831" height="30" as="geometry"/>
                </mxCell>
            </root>
        </mxGraphModel>
    </diagram>
    <diagram id="U_L3nOPzshEpgX5K7CYZ" name="Sign in (Security)">
        <mxGraphModel dx="906" dy="682" grid="0" gridSize="10" guides="1" tooltips="1" connect="1" arrows="1" fold="1" page="1" pageScale="1" pageWidth="850" pageHeight="1100" math="0" shadow="0">
            <root>
                <mxCell id="0"/>
                <mxCell id="1" parent="0"/>
                <mxCell id="YJXIVyQnSXZ6xvs9RE19-25" value="" style="rounded=0;whiteSpace=wrap;html=1;dashed=1;" parent="1" vertex="1">
                    <mxGeometry x="210" y="670" width="350" height="150" as="geometry"/>
                </mxCell>
                <mxCell id="6klq_WFjtzj0Y-9j99Yp-1" style="edgeStyle=none;html=1;exitX=1;exitY=0.5;exitDx=0;exitDy=0;entryX=0;entryY=0.5;entryDx=0;entryDy=0;" parent="1" source="6klq_WFjtzj0Y-9j99Yp-2" target="6klq_WFjtzj0Y-9j99Yp-3" edge="1">
                    <mxGeometry relative="1" as="geometry"/>
                </mxCell>
                <mxCell id="6klq_WFjtzj0Y-9j99Yp-2" value="User" style="rounded=0;whiteSpace=wrap;html=1;" parent="1" vertex="1">
                    <mxGeometry x="170" y="30" width="90" height="40" as="geometry"/>
                </mxCell>
                <mxCell id="6klq_WFjtzj0Y-9j99Yp-3" value="Mobile System" style="ellipse;whiteSpace=wrap;html=1;" parent="1" vertex="1">
                    <mxGeometry x="326.5" y="10" width="120" height="80" as="geometry"/>
                </mxCell>
                <mxCell id="6klq_WFjtzj0Y-9j99Yp-4" value="Login System" style="ellipse;whiteSpace=wrap;html=1;" parent="1" vertex="1">
                    <mxGeometry x="326.5" y="180" width="120" height="80" as="geometry"/>
                </mxCell>
                <mxCell id="6klq_WFjtzj0Y-9j99Yp-5" style="edgeStyle=none;html=1;exitX=1;exitY=0.5;exitDx=0;exitDy=0;exitPerimeter=0;startArrow=oval;endArrow=oval;endFill=1;startFill=1;entryX=0;entryY=0.5;entryDx=0;entryDy=0;" parent="1" source="6klq_WFjtzj0Y-9j99Yp-6" target="6klq_WFjtzj0Y-9j99Yp-4" edge="1">
                    <mxGeometry relative="1" as="geometry">
                        <mxPoint x="586.5" y="180" as="targetPoint"/>
                    </mxGeometry>
                </mxCell>
                <mxCell id="6klq_WFjtzj0Y-9j99Yp-6" value="MySQL" style="shape=cylinder3;whiteSpace=wrap;html=1;boundedLbl=1;backgroundOutline=1;size=15;" parent="1" vertex="1">
                    <mxGeometry x="170" y="180" width="60" height="80" as="geometry"/>
                </mxCell>
                <mxCell id="6klq_WFjtzj0Y-9j99Yp-7" value="" style="group" parent="1" vertex="1" connectable="0">
                    <mxGeometry x="160" y="300" width="500" height="200" as="geometry"/>
                </mxCell>
                <mxCell id="6klq_WFjtzj0Y-9j99Yp-8" value="" style="rounded=0;whiteSpace=wrap;html=1;container=0;" parent="6klq_WFjtzj0Y-9j99Yp-7" vertex="1">
                    <mxGeometry width="500" height="200" as="geometry"/>
                </mxCell>
                <mxCell id="6klq_WFjtzj0Y-9j99Yp-9" value="Legend" style="text;html=1;strokeColor=default;fillColor=none;align=center;verticalAlign=middle;whiteSpace=wrap;rounded=0;container=0;" parent="6klq_WFjtzj0Y-9j99Yp-7" vertex="1">
                    <mxGeometry width="68.97196261682242" height="30" as="geometry"/>
                </mxCell>
                <mxCell id="6klq_WFjtzj0Y-9j99Yp-10" value="" style="rounded=0;whiteSpace=wrap;html=1;strokeColor=default;container=0;" parent="6klq_WFjtzj0Y-9j99Yp-7" vertex="1">
                    <mxGeometry x="22" y="60" width="78" height="40" as="geometry"/>
                </mxCell>
                <mxCell id="6klq_WFjtzj0Y-9j99Yp-11" value="Entity" style="text;html=1;strokeColor=none;fillColor=none;align=center;verticalAlign=middle;whiteSpace=wrap;rounded=0;container=0;" parent="6klq_WFjtzj0Y-9j99Yp-7" vertex="1">
                    <mxGeometry x="100" y="65" width="60" height="30" as="geometry"/>
                </mxCell>
                <mxCell id="6klq_WFjtzj0Y-9j99Yp-12" value="A interact with B" style="text;html=1;strokeColor=none;fillColor=none;align=center;verticalAlign=middle;whiteSpace=wrap;rounded=0;container=0;" parent="6klq_WFjtzj0Y-9j99Yp-7" vertex="1">
                    <mxGeometry x="61.669445983379546" y="140" width="103.90581717451524" height="30" as="geometry"/>
                </mxCell>
                <mxCell id="6klq_WFjtzj0Y-9j99Yp-13" value="" style="endArrow=classic;html=1;" parent="6klq_WFjtzj0Y-9j99Yp-7" target="6klq_WFjtzj0Y-9j99Yp-12" edge="1">
                    <mxGeometry width="50" height="50" relative="1" as="geometry">
                        <mxPoint x="21.99631578947367" y="155" as="sourcePoint"/>
                        <mxPoint x="78.67221606648195" y="155" as="targetPoint"/>
                    </mxGeometry>
                </mxCell>
                <mxCell id="6klq_WFjtzj0Y-9j99Yp-14" value="" style="endArrow=diamondThin;startArrow=diamondThin;html=1;startFill=0;endFill=0;shape=flexArrow;" parent="6klq_WFjtzj0Y-9j99Yp-7" target="6klq_WFjtzj0Y-9j99Yp-15" edge="1">
                    <mxGeometry width="50" height="50" relative="1" as="geometry">
                        <mxPoint x="195.64501385041547" y="155" as="sourcePoint"/>
                        <mxPoint x="120.07714681440444" y="155" as="targetPoint"/>
                    </mxGeometry>
                </mxCell>
                <mxCell id="6klq_WFjtzj0Y-9j99Yp-15" value="HTTP" style="text;html=1;strokeColor=none;fillColor=none;align=center;verticalAlign=middle;whiteSpace=wrap;rounded=0;container=0;" parent="6klq_WFjtzj0Y-9j99Yp-7" vertex="1">
                    <mxGeometry x="261.7668975069252" y="140" width="56.67590027700831" height="30" as="geometry"/>
                </mxCell>
                <mxCell id="6klq_WFjtzj0Y-9j99Yp-16" value="" style="endArrow=oval;startArrow=oval;html=1;startFill=1;endFill=1;" parent="6klq_WFjtzj0Y-9j99Yp-7" target="6klq_WFjtzj0Y-9j99Yp-17" edge="1">
                    <mxGeometry width="50" height="50" relative="1" as="geometry">
                        <mxPoint x="365.9986980609418" y="155" as="sourcePoint"/>
                        <mxPoint x="309.32279778393354" y="155" as="targetPoint"/>
                    </mxGeometry>
                </mxCell>
                <mxCell id="6klq_WFjtzj0Y-9j99Yp-17" value="DB Connector" style="text;html=1;strokeColor=none;fillColor=none;align=center;verticalAlign=middle;whiteSpace=wrap;rounded=0;container=0;" parent="6klq_WFjtzj0Y-9j99Yp-7" vertex="1">
                    <mxGeometry x="403.78263157894736" y="140" width="94.45983379501385" height="30" as="geometry"/>
                </mxCell>
                <mxCell id="6klq_WFjtzj0Y-9j99Yp-18" value="" style="shape=cylinder3;whiteSpace=wrap;html=1;boundedLbl=1;backgroundOutline=1;size=15;rounded=0;strokeColor=default;container=0;" parent="6klq_WFjtzj0Y-9j99Yp-7" vertex="1">
                    <mxGeometry x="366.00058171745155" y="47.5" width="45.340720221606645" height="65" as="geometry"/>
                </mxCell>
                <mxCell id="6klq_WFjtzj0Y-9j99Yp-19" value="Database" style="text;html=1;strokeColor=none;fillColor=none;align=center;verticalAlign=middle;whiteSpace=wrap;rounded=0;container=0;" parent="6klq_WFjtzj0Y-9j99Yp-7" vertex="1">
                    <mxGeometry x="422.67648199445983" y="70" width="56.67590027700831" height="30" as="geometry"/>
                </mxCell>
                <mxCell id="6klq_WFjtzj0Y-9j99Yp-20" value="" style="ellipse;whiteSpace=wrap;html=1;rounded=0;strokeColor=default;container=0;" parent="6klq_WFjtzj0Y-9j99Yp-7" vertex="1">
                    <mxGeometry x="195.64288088642655" y="60" width="73.6786703601108" height="40" as="geometry"/>
                </mxCell>
                <mxCell id="6klq_WFjtzj0Y-9j99Yp-21" value="System" style="text;html=1;strokeColor=none;fillColor=none;align=center;verticalAlign=middle;whiteSpace=wrap;rounded=0;container=0;" parent="6klq_WFjtzj0Y-9j99Yp-7" vertex="1">
                    <mxGeometry x="269.32155124653735" y="65" width="56.67590027700831" height="30" as="geometry"/>
                </mxCell>
                <mxCell id="6klq_WFjtzj0Y-9j99Yp-24" style="edgeStyle=none;html=1;startArrow=diamondThin;exitX=0.5;exitY=1;exitDx=0;exitDy=0;endArrow=diamondThin;endFill=0;startFill=0;shape=flexArrow;entryX=0.5;entryY=0;entryDx=0;entryDy=0;" parent="1" source="6klq_WFjtzj0Y-9j99Yp-3" target="6klq_WFjtzj0Y-9j99Yp-4" edge="1">
                    <mxGeometry relative="1" as="geometry">
                        <mxPoint x="396.5" y="90" as="sourcePoint"/>
                        <mxPoint x="488.5" y="130" as="targetPoint"/>
                    </mxGeometry>
                </mxCell>
                <mxCell id="YJXIVyQnSXZ6xvs9RE19-26" value="Login System" style="text;html=1;strokeColor=default;fillColor=none;align=center;verticalAlign=middle;whiteSpace=wrap;rounded=0;" parent="1" vertex="1">
                    <mxGeometry x="210" y="670" width="90" height="30" as="geometry"/>
                </mxCell>
                <mxCell id="YJXIVyQnSXZ6xvs9RE19-28" value="Authentication" style="ellipse;whiteSpace=wrap;html=1;strokeColor=default;" parent="1" vertex="1">
                    <mxGeometry x="419" y="730" width="101" height="60" as="geometry"/>
                </mxCell>
                <mxCell id="bDRfjrmT6zNbPW8Ehvxu-3" style="edgeStyle=none;html=1;exitX=1;exitY=0.5;exitDx=0;exitDy=0;entryX=0;entryY=0.5;entryDx=0;entryDy=0;startArrow=none;startFill=0;endArrow=block;endFill=1;" parent="1" source="bKR0vN4J91xmEnQRHu9O-1" target="YJXIVyQnSXZ6xvs9RE19-28" edge="1">
                    <mxGeometry relative="1" as="geometry">
                        <mxPoint x="360" y="760" as="sourcePoint"/>
                    </mxGeometry>
                </mxCell>
                <mxCell id="bDRfjrmT6zNbPW8Ehvxu-2" value="" style="endArrow=oval;html=1;entryX=0;entryY=0.5;entryDx=0;entryDy=0;endFill=1;startArrow=oval;startFill=1;" parent="1" target="bKR0vN4J91xmEnQRHu9O-1" edge="1">
                    <mxGeometry width="50" height="50" relative="1" as="geometry">
                        <mxPoint x="167" y="760" as="sourcePoint"/>
                        <mxPoint x="250" y="760" as="targetPoint"/>
                    </mxGeometry>
                </mxCell>
                <mxCell id="bDRfjrmT6zNbPW8Ehvxu-4" value="" style="endArrow=classic;startArrow=classic;html=1;exitX=0.5;exitY=0;exitDx=0;exitDy=0;shape=flexArrow;" parent="1" source="YJXIVyQnSXZ6xvs9RE19-28" edge="1">
                    <mxGeometry width="50" height="50" relative="1" as="geometry">
                        <mxPoint x="400" y="670" as="sourcePoint"/>
                        <mxPoint x="470" y="620" as="targetPoint"/>
                    </mxGeometry>
                </mxCell>
                <mxCell id="bKR0vN4J91xmEnQRHu9O-1" value="Check Account in&amp;nbsp; &amp;nbsp;DB" style="shape=hexagon;perimeter=hexagonPerimeter2;whiteSpace=wrap;html=1;fixedSize=1;strokeColor=default;" parent="1" vertex="1">
                    <mxGeometry x="240" y="720" width="120" height="80" as="geometry"/>
                </mxCell>
                <mxCell id="bKR0vN4J91xmEnQRHu9O-4" value="" style="group" parent="1" vertex="1" connectable="0">
                    <mxGeometry x="160" y="854" width="448" height="160" as="geometry"/>
                </mxCell>
                <mxCell id="bDRfjrmT6zNbPW8Ehvxu-7" value="" style="rounded=0;whiteSpace=wrap;html=1;container=0;" parent="bKR0vN4J91xmEnQRHu9O-4" vertex="1">
                    <mxGeometry width="448" height="160" as="geometry"/>
                </mxCell>
                <mxCell id="bDRfjrmT6zNbPW8Ehvxu-8" value="Legend" style="text;html=1;strokeColor=default;fillColor=none;align=center;verticalAlign=middle;whiteSpace=wrap;rounded=0;container=0;" parent="bKR0vN4J91xmEnQRHu9O-4" vertex="1">
                    <mxGeometry width="61.7988785046729" height="30" as="geometry"/>
                </mxCell>
                <mxCell id="bDRfjrmT6zNbPW8Ehvxu-11" value="A interact with B" style="text;html=1;strokeColor=none;fillColor=none;align=center;verticalAlign=middle;whiteSpace=wrap;rounded=0;container=0;" parent="bKR0vN4J91xmEnQRHu9O-4" vertex="1">
                    <mxGeometry x="97.3499036011081" y="120" width="93.09961218836565" height="30" as="geometry"/>
                </mxCell>
                <mxCell id="bDRfjrmT6zNbPW8Ehvxu-12" value="" style="endArrow=classic;html=1;" parent="bKR0vN4J91xmEnQRHu9O-4" target="bDRfjrmT6zNbPW8Ehvxu-11" edge="1">
                    <mxGeometry width="50" height="50" relative="1" as="geometry">
                        <mxPoint x="61.802778947368424" y="135" as="sourcePoint"/>
                        <mxPoint x="112.58438559556784" y="135" as="targetPoint"/>
                    </mxGeometry>
                </mxCell>
                <mxCell id="bDRfjrmT6zNbPW8Ehvxu-13" value="" style="endArrow=diamondThin;startArrow=diamondThin;html=1;startFill=0;endFill=0;shape=flexArrow;" parent="bKR0vN4J91xmEnQRHu9O-4" target="bDRfjrmT6zNbPW8Ehvxu-14" edge="1">
                    <mxGeometry width="50" height="50" relative="1" as="geometry">
                        <mxPoint x="322.5555324099723" y="72.5" as="sourcePoint"/>
                        <mxPoint x="254.84672354570634" y="72.5" as="targetPoint"/>
                    </mxGeometry>
                </mxCell>
                <mxCell id="bDRfjrmT6zNbPW8Ehvxu-14" value="HTTP" style="text;html=1;strokeColor=none;fillColor=none;align=center;verticalAlign=middle;whiteSpace=wrap;rounded=0;container=0;" parent="bKR0vN4J91xmEnQRHu9O-4" vertex="1">
                    <mxGeometry x="381.800740166205" y="57.5" width="50.78160664819944" height="30" as="geometry"/>
                </mxCell>
                <mxCell id="bDRfjrmT6zNbPW8Ehvxu-15" value="" style="endArrow=oval;startArrow=oval;html=1;startFill=1;endFill=1;" parent="bKR0vN4J91xmEnQRHu9O-4" target="bDRfjrmT6zNbPW8Ehvxu-16" edge="1">
                    <mxGeometry width="50" height="50" relative="1" as="geometry">
                        <mxPoint x="244.9473134626039" y="135" as="sourcePoint"/>
                        <mxPoint x="194.16570681440444" y="135" as="targetPoint"/>
                    </mxGeometry>
                </mxCell>
                <mxCell id="bDRfjrmT6zNbPW8Ehvxu-16" value="DB Connector" style="text;html=1;strokeColor=none;fillColor=none;align=center;verticalAlign=middle;whiteSpace=wrap;rounded=0;container=0;" parent="bKR0vN4J91xmEnQRHu9O-4" vertex="1">
                    <mxGeometry x="278.8017178947368" y="120" width="84.63601108033241" height="30" as="geometry"/>
                </mxCell>
                <mxCell id="bDRfjrmT6zNbPW8Ehvxu-19" value="" style="ellipse;whiteSpace=wrap;html=1;rounded=0;strokeColor=default;container=0;" parent="bKR0vN4J91xmEnQRHu9O-4" vertex="1">
                    <mxGeometry x="20.986901274238193" y="52.5" width="66.01608864265927" height="40" as="geometry"/>
                </mxCell>
                <mxCell id="bDRfjrmT6zNbPW8Ehvxu-20" value="Process" style="text;html=1;strokeColor=none;fillColor=none;align=center;verticalAlign=middle;whiteSpace=wrap;rounded=0;container=0;" parent="bKR0vN4J91xmEnQRHu9O-4" vertex="1">
                    <mxGeometry x="87.00298991689748" y="57.5" width="50.78160664819944" height="30" as="geometry"/>
                </mxCell>
                <mxCell id="bKR0vN4J91xmEnQRHu9O-2" value="" style="shape=hexagon;perimeter=hexagonPerimeter2;whiteSpace=wrap;html=1;fixedSize=1;strokeColor=default;" parent="bKR0vN4J91xmEnQRHu9O-4" vertex="1">
                    <mxGeometry x="172.928" y="50" width="71.68" height="45" as="geometry"/>
                </mxCell>
                <mxCell id="bKR0vN4J91xmEnQRHu9O-3" value="Logic" style="text;html=1;strokeColor=none;fillColor=none;align=center;verticalAlign=middle;whiteSpace=wrap;rounded=0;" parent="bKR0vN4J91xmEnQRHu9O-4" vertex="1">
                    <mxGeometry x="244.608" y="57.5" width="53.76" height="30" as="geometry"/>
                </mxCell>
                <mxCell id="bKR0vN4J91xmEnQRHu9O-5" value="" style="endArrow=classic;html=1;entryX=1;entryY=0.5;entryDx=0;entryDy=0;exitX=0;exitY=0.5;exitDx=0;exitDy=0;" parent="1" source="bKR0vN4J91xmEnQRHu9O-6" target="6klq_WFjtzj0Y-9j99Yp-4" edge="1">
                    <mxGeometry width="50" height="50" relative="1" as="geometry">
                        <mxPoint x="528.5" y="220" as="sourcePoint"/>
                        <mxPoint x="358.5" y="200" as="targetPoint"/>
                    </mxGeometry>
                </mxCell>
                <mxCell id="bKR0vN4J91xmEnQRHu9O-6" value="Email Verification API" style="rounded=0;whiteSpace=wrap;html=1;strokeColor=default;" parent="1" vertex="1">
                    <mxGeometry x="500" y="195" width="150" height="50" as="geometry"/>
                </mxCell>
                <mxCell id="bKR0vN4J91xmEnQRHu9O-7" value="" style="endArrow=classic;html=1;entryX=1;entryY=0.5;entryDx=0;entryDy=0;" parent="1" target="YJXIVyQnSXZ6xvs9RE19-28" edge="1">
                    <mxGeometry width="50" height="50" relative="1" as="geometry">
                        <mxPoint x="603" y="790" as="sourcePoint"/>
                        <mxPoint x="420" y="870" as="targetPoint"/>
                    </mxGeometry>
                </mxCell>
            </root>
        </mxGraphModel>
    </diagram>
    <diagram id="WgauvoF78wuSx7PiPiyh" name="Sign Up (Security)">
        <mxGraphModel dx="906" dy="682" grid="0" gridSize="10" guides="1" tooltips="1" connect="1" arrows="1" fold="1" page="1" pageScale="1" pageWidth="850" pageHeight="1100" math="0" shadow="0">
            <root>
                <mxCell id="0"/>
                <mxCell id="1" parent="0"/>
                <mxCell id="wVjH6AehZhU4VnvMXDHV-1" value="" style="rounded=0;whiteSpace=wrap;html=1;dashed=1;" parent="1" vertex="1">
                    <mxGeometry x="230" y="680" width="340" height="150" as="geometry"/>
                </mxCell>
                <mxCell id="wVjH6AehZhU4VnvMXDHV-2" style="edgeStyle=none;html=1;exitX=1;exitY=0.5;exitDx=0;exitDy=0;entryX=0;entryY=0.5;entryDx=0;entryDy=0;" parent="1" source="wVjH6AehZhU4VnvMXDHV-3" target="wVjH6AehZhU4VnvMXDHV-4" edge="1">
                    <mxGeometry relative="1" as="geometry"/>
                </mxCell>
                <mxCell id="wVjH6AehZhU4VnvMXDHV-3" value="User" style="rounded=0;whiteSpace=wrap;html=1;" parent="1" vertex="1">
                    <mxGeometry x="271.75" y="30" width="90" height="40" as="geometry"/>
                </mxCell>
                <mxCell id="wVjH6AehZhU4VnvMXDHV-4" value="Mobile System" style="ellipse;whiteSpace=wrap;html=1;" parent="1" vertex="1">
                    <mxGeometry x="428.25" y="10" width="120" height="80" as="geometry"/>
                </mxCell>
                <mxCell id="wVjH6AehZhU4VnvMXDHV-5" value="Register System" style="ellipse;whiteSpace=wrap;html=1;" parent="1" vertex="1">
                    <mxGeometry x="428.25" y="180" width="120" height="80" as="geometry"/>
                </mxCell>
                <mxCell id="wVjH6AehZhU4VnvMXDHV-6" style="edgeStyle=none;html=1;exitX=1;exitY=0.5;exitDx=0;exitDy=0;exitPerimeter=0;startArrow=oval;endArrow=oval;endFill=1;startFill=1;entryX=0;entryY=0.5;entryDx=0;entryDy=0;" parent="1" source="wVjH6AehZhU4VnvMXDHV-7" target="wVjH6AehZhU4VnvMXDHV-5" edge="1">
                    <mxGeometry relative="1" as="geometry">
                        <mxPoint x="688.25" y="180" as="targetPoint"/>
                    </mxGeometry>
                </mxCell>
                <mxCell id="wVjH6AehZhU4VnvMXDHV-7" value="MySQL" style="shape=cylinder3;whiteSpace=wrap;html=1;boundedLbl=1;backgroundOutline=1;size=15;" parent="1" vertex="1">
                    <mxGeometry x="271.75" y="180" width="60" height="80" as="geometry"/>
                </mxCell>
                <mxCell id="wVjH6AehZhU4VnvMXDHV-8" value="" style="group" parent="1" vertex="1" connectable="0">
                    <mxGeometry x="160" y="300" width="500" height="200" as="geometry"/>
                </mxCell>
                <mxCell id="wVjH6AehZhU4VnvMXDHV-9" value="" style="rounded=0;whiteSpace=wrap;html=1;container=0;" parent="wVjH6AehZhU4VnvMXDHV-8" vertex="1">
                    <mxGeometry width="500" height="200" as="geometry"/>
                </mxCell>
                <mxCell id="wVjH6AehZhU4VnvMXDHV-10" value="Legend" style="text;html=1;strokeColor=default;fillColor=none;align=center;verticalAlign=middle;whiteSpace=wrap;rounded=0;container=0;" parent="wVjH6AehZhU4VnvMXDHV-8" vertex="1">
                    <mxGeometry width="68.97196261682242" height="30" as="geometry"/>
                </mxCell>
                <mxCell id="wVjH6AehZhU4VnvMXDHV-11" value="" style="rounded=0;whiteSpace=wrap;html=1;strokeColor=default;container=0;" parent="wVjH6AehZhU4VnvMXDHV-8" vertex="1">
                    <mxGeometry x="22" y="60" width="78" height="40" as="geometry"/>
                </mxCell>
                <mxCell id="wVjH6AehZhU4VnvMXDHV-12" value="Entity" style="text;html=1;strokeColor=none;fillColor=none;align=center;verticalAlign=middle;whiteSpace=wrap;rounded=0;container=0;" parent="wVjH6AehZhU4VnvMXDHV-8" vertex="1">
                    <mxGeometry x="100" y="65" width="60" height="30" as="geometry"/>
                </mxCell>
                <mxCell id="wVjH6AehZhU4VnvMXDHV-13" value="A interact with B" style="text;html=1;strokeColor=none;fillColor=none;align=center;verticalAlign=middle;whiteSpace=wrap;rounded=0;container=0;" parent="wVjH6AehZhU4VnvMXDHV-8" vertex="1">
                    <mxGeometry x="61.669445983379546" y="140" width="103.90581717451524" height="30" as="geometry"/>
                </mxCell>
                <mxCell id="wVjH6AehZhU4VnvMXDHV-14" value="" style="endArrow=classic;html=1;" parent="wVjH6AehZhU4VnvMXDHV-8" target="wVjH6AehZhU4VnvMXDHV-13" edge="1">
                    <mxGeometry width="50" height="50" relative="1" as="geometry">
                        <mxPoint x="21.99631578947367" y="155" as="sourcePoint"/>
                        <mxPoint x="78.67221606648195" y="155" as="targetPoint"/>
                    </mxGeometry>
                </mxCell>
                <mxCell id="wVjH6AehZhU4VnvMXDHV-15" value="" style="endArrow=diamondThin;startArrow=diamondThin;html=1;startFill=0;endFill=0;shape=flexArrow;" parent="wVjH6AehZhU4VnvMXDHV-8" target="wVjH6AehZhU4VnvMXDHV-16" edge="1">
                    <mxGeometry width="50" height="50" relative="1" as="geometry">
                        <mxPoint x="195.64501385041547" y="155" as="sourcePoint"/>
                        <mxPoint x="120.07714681440444" y="155" as="targetPoint"/>
                    </mxGeometry>
                </mxCell>
                <mxCell id="wVjH6AehZhU4VnvMXDHV-16" value="HTTP" style="text;html=1;strokeColor=none;fillColor=none;align=center;verticalAlign=middle;whiteSpace=wrap;rounded=0;container=0;" parent="wVjH6AehZhU4VnvMXDHV-8" vertex="1">
                    <mxGeometry x="261.7668975069252" y="140" width="56.67590027700831" height="30" as="geometry"/>
                </mxCell>
                <mxCell id="wVjH6AehZhU4VnvMXDHV-17" value="" style="endArrow=oval;startArrow=oval;html=1;startFill=1;endFill=1;" parent="wVjH6AehZhU4VnvMXDHV-8" target="wVjH6AehZhU4VnvMXDHV-18" edge="1">
                    <mxGeometry width="50" height="50" relative="1" as="geometry">
                        <mxPoint x="365.9986980609418" y="155" as="sourcePoint"/>
                        <mxPoint x="309.32279778393354" y="155" as="targetPoint"/>
                    </mxGeometry>
                </mxCell>
                <mxCell id="wVjH6AehZhU4VnvMXDHV-18" value="DB Connector" style="text;html=1;strokeColor=none;fillColor=none;align=center;verticalAlign=middle;whiteSpace=wrap;rounded=0;container=0;" parent="wVjH6AehZhU4VnvMXDHV-8" vertex="1">
                    <mxGeometry x="403.78263157894736" y="140" width="94.45983379501385" height="30" as="geometry"/>
                </mxCell>
                <mxCell id="wVjH6AehZhU4VnvMXDHV-19" value="" style="shape=cylinder3;whiteSpace=wrap;html=1;boundedLbl=1;backgroundOutline=1;size=15;rounded=0;strokeColor=default;container=0;" parent="wVjH6AehZhU4VnvMXDHV-8" vertex="1">
                    <mxGeometry x="366.00058171745155" y="47.5" width="45.340720221606645" height="65" as="geometry"/>
                </mxCell>
                <mxCell id="wVjH6AehZhU4VnvMXDHV-20" value="Database" style="text;html=1;strokeColor=none;fillColor=none;align=center;verticalAlign=middle;whiteSpace=wrap;rounded=0;container=0;" parent="wVjH6AehZhU4VnvMXDHV-8" vertex="1">
                    <mxGeometry x="422.67648199445983" y="70" width="56.67590027700831" height="30" as="geometry"/>
                </mxCell>
                <mxCell id="wVjH6AehZhU4VnvMXDHV-21" value="" style="ellipse;whiteSpace=wrap;html=1;rounded=0;strokeColor=default;container=0;" parent="wVjH6AehZhU4VnvMXDHV-8" vertex="1">
                    <mxGeometry x="195.64288088642655" y="60" width="73.6786703601108" height="40" as="geometry"/>
                </mxCell>
                <mxCell id="wVjH6AehZhU4VnvMXDHV-22" value="System" style="text;html=1;strokeColor=none;fillColor=none;align=center;verticalAlign=middle;whiteSpace=wrap;rounded=0;container=0;" parent="wVjH6AehZhU4VnvMXDHV-8" vertex="1">
                    <mxGeometry x="269.32155124653735" y="65" width="56.67590027700831" height="30" as="geometry"/>
                </mxCell>
                <mxCell id="wVjH6AehZhU4VnvMXDHV-23" style="edgeStyle=none;html=1;startArrow=diamondThin;exitX=0.5;exitY=1;exitDx=0;exitDy=0;endArrow=diamondThin;endFill=0;startFill=0;shape=flexArrow;entryX=0.5;entryY=0;entryDx=0;entryDy=0;" parent="1" source="wVjH6AehZhU4VnvMXDHV-4" target="wVjH6AehZhU4VnvMXDHV-5" edge="1">
                    <mxGeometry relative="1" as="geometry">
                        <mxPoint x="498.25" y="90" as="sourcePoint"/>
                        <mxPoint x="590.25" y="130" as="targetPoint"/>
                    </mxGeometry>
                </mxCell>
                <mxCell id="wVjH6AehZhU4VnvMXDHV-24" value="Register System" style="text;html=1;strokeColor=default;fillColor=none;align=center;verticalAlign=middle;whiteSpace=wrap;rounded=0;" parent="1" vertex="1">
                    <mxGeometry x="231.75" y="680" width="110" height="30" as="geometry"/>
                </mxCell>
                <mxCell id="wVjH6AehZhU4VnvMXDHV-25" value="Create Partner" style="ellipse;whiteSpace=wrap;html=1;strokeColor=default;" parent="1" vertex="1">
                    <mxGeometry x="450" y="740" width="101" height="60" as="geometry"/>
                </mxCell>
                <mxCell id="wVjH6AehZhU4VnvMXDHV-26" style="edgeStyle=none;html=1;exitX=1;exitY=0.5;exitDx=0;exitDy=0;entryX=0;entryY=0.5;entryDx=0;entryDy=0;startArrow=openThin;startFill=0;endArrow=none;endFill=0;" parent="1" source="wVjH6AehZhU4VnvMXDHV-29" target="wVjH6AehZhU4VnvMXDHV-25" edge="1">
                    <mxGeometry relative="1" as="geometry">
                        <mxPoint x="430" y="770" as="sourcePoint"/>
                    </mxGeometry>
                </mxCell>
                <mxCell id="wVjH6AehZhU4VnvMXDHV-27" value="" style="endArrow=oval;html=1;entryX=0;entryY=0.5;entryDx=0;entryDy=0;endFill=1;startArrow=oval;startFill=1;" parent="1" target="wVjH6AehZhU4VnvMXDHV-29" edge="1">
                    <mxGeometry width="50" height="50" relative="1" as="geometry">
                        <mxPoint x="180" y="770" as="sourcePoint"/>
                        <mxPoint x="320" y="770" as="targetPoint"/>
                    </mxGeometry>
                </mxCell>
                <mxCell id="wVjH6AehZhU4VnvMXDHV-28" value="" style="endArrow=classic;startArrow=classic;html=1;exitX=0.5;exitY=0;exitDx=0;exitDy=0;shape=flexArrow;" parent="1" source="wVjH6AehZhU4VnvMXDHV-25" edge="1">
                    <mxGeometry width="50" height="50" relative="1" as="geometry">
                        <mxPoint x="431" y="680" as="sourcePoint"/>
                        <mxPoint x="501" y="630" as="targetPoint"/>
                    </mxGeometry>
                </mxCell>
                <mxCell id="wVjH6AehZhU4VnvMXDHV-29" value="Check Account in&amp;nbsp; &amp;nbsp;DB" style="shape=hexagon;perimeter=hexagonPerimeter2;whiteSpace=wrap;html=1;fixedSize=1;strokeColor=default;" parent="1" vertex="1">
                    <mxGeometry x="270" y="730" width="120" height="80" as="geometry"/>
                </mxCell>
                <mxCell id="wVjH6AehZhU4VnvMXDHV-30" value="" style="group" parent="1" vertex="1" connectable="0">
                    <mxGeometry x="169" y="852" width="458" height="160" as="geometry"/>
                </mxCell>
                <mxCell id="wVjH6AehZhU4VnvMXDHV-31" value="" style="rounded=0;whiteSpace=wrap;html=1;container=0;" parent="wVjH6AehZhU4VnvMXDHV-30" vertex="1">
                    <mxGeometry width="458" height="160" as="geometry"/>
                </mxCell>
                <mxCell id="wVjH6AehZhU4VnvMXDHV-32" value="Legend" style="text;html=1;strokeColor=default;fillColor=none;align=center;verticalAlign=middle;whiteSpace=wrap;rounded=0;container=0;" parent="wVjH6AehZhU4VnvMXDHV-30" vertex="1">
                    <mxGeometry width="63.178317757009346" height="30" as="geometry"/>
                </mxCell>
                <mxCell id="wVjH6AehZhU4VnvMXDHV-33" value="A interact with B" style="text;html=1;strokeColor=none;fillColor=none;align=center;verticalAlign=middle;whiteSpace=wrap;rounded=0;container=0;" parent="wVjH6AehZhU4VnvMXDHV-30" vertex="1">
                    <mxGeometry x="99.52289252077568" y="120" width="95.17772853185596" height="30" as="geometry"/>
                </mxCell>
                <mxCell id="wVjH6AehZhU4VnvMXDHV-34" value="" style="endArrow=classic;html=1;" parent="wVjH6AehZhU4VnvMXDHV-30" target="wVjH6AehZhU4VnvMXDHV-33" edge="1">
                    <mxGeometry width="50" height="50" relative="1" as="geometry">
                        <mxPoint x="63.1823052631579" y="135" as="sourcePoint"/>
                        <mxPoint x="115.09742991689748" y="135" as="targetPoint"/>
                    </mxGeometry>
                </mxCell>
                <mxCell id="wVjH6AehZhU4VnvMXDHV-35" value="" style="endArrow=diamondThin;startArrow=diamondThin;html=1;startFill=0;endFill=0;shape=flexArrow;" parent="wVjH6AehZhU4VnvMXDHV-30" target="wVjH6AehZhU4VnvMXDHV-36" edge="1">
                    <mxGeometry width="50" height="50" relative="1" as="geometry">
                        <mxPoint x="329.7554326869806" y="72.5" as="sourcePoint"/>
                        <mxPoint x="260.5352664819944" y="72.5" as="targetPoint"/>
                    </mxGeometry>
                </mxCell>
                <mxCell id="wVjH6AehZhU4VnvMXDHV-36" value="HTTP" style="text;html=1;strokeColor=none;fillColor=none;align=center;verticalAlign=middle;whiteSpace=wrap;rounded=0;container=0;" parent="wVjH6AehZhU4VnvMXDHV-30" vertex="1">
                    <mxGeometry x="390.3230781163435" y="57.5" width="51.91512465373961" height="30" as="geometry"/>
                </mxCell>
                <mxCell id="wVjH6AehZhU4VnvMXDHV-37" value="" style="endArrow=oval;startArrow=oval;html=1;startFill=1;endFill=1;" parent="wVjH6AehZhU4VnvMXDHV-30" target="wVjH6AehZhU4VnvMXDHV-38" edge="1">
                    <mxGeometry width="50" height="50" relative="1" as="geometry">
                        <mxPoint x="250.4148874238227" y="135" as="sourcePoint"/>
                        <mxPoint x="198.49976277008312" y="135" as="targetPoint"/>
                    </mxGeometry>
                </mxCell>
                <mxCell id="wVjH6AehZhU4VnvMXDHV-38" value="DB Connector" style="text;html=1;strokeColor=none;fillColor=none;align=center;verticalAlign=middle;whiteSpace=wrap;rounded=0;container=0;" parent="wVjH6AehZhU4VnvMXDHV-30" vertex="1">
                    <mxGeometry x="285.0249705263157" y="120" width="86.52520775623269" height="30" as="geometry"/>
                </mxCell>
                <mxCell id="wVjH6AehZhU4VnvMXDHV-39" value="" style="ellipse;whiteSpace=wrap;html=1;rounded=0;strokeColor=default;container=0;" parent="wVjH6AehZhU4VnvMXDHV-30" vertex="1">
                    <mxGeometry x="21.455358891966725" y="52.5" width="67.4896620498615" height="40" as="geometry"/>
                </mxCell>
                <mxCell id="wVjH6AehZhU4VnvMXDHV-40" value="Process" style="text;html=1;strokeColor=none;fillColor=none;align=center;verticalAlign=middle;whiteSpace=wrap;rounded=0;container=0;" parent="wVjH6AehZhU4VnvMXDHV-30" vertex="1">
                    <mxGeometry x="88.94502094182822" y="57.5" width="51.91512465373961" height="30" as="geometry"/>
                </mxCell>
                <mxCell id="wVjH6AehZhU4VnvMXDHV-41" value="" style="shape=hexagon;perimeter=hexagonPerimeter2;whiteSpace=wrap;html=1;fixedSize=1;strokeColor=default;" parent="wVjH6AehZhU4VnvMXDHV-30" vertex="1">
                    <mxGeometry x="176.788" y="50" width="73.28" height="45" as="geometry"/>
                </mxCell>
                <mxCell id="wVjH6AehZhU4VnvMXDHV-42" value="Logic" style="text;html=1;strokeColor=none;fillColor=none;align=center;verticalAlign=middle;whiteSpace=wrap;rounded=0;" parent="wVjH6AehZhU4VnvMXDHV-30" vertex="1">
                    <mxGeometry x="250.068" y="57.5" width="54.96" height="30" as="geometry"/>
                </mxCell>
            </root>
        </mxGraphModel>
    </diagram>
    <diagram id="cRIz9Q-6gKw0EKmUUA0K" name="Update User (Performance)">
        <mxGraphModel dx="906" dy="682" grid="0" gridSize="10" guides="1" tooltips="1" connect="1" arrows="1" fold="1" page="1" pageScale="1" pageWidth="850" pageHeight="1100" math="0" shadow="0">
            <root>
                <mxCell id="0"/>
                <mxCell id="1" parent="0"/>
                <mxCell id="oA5VD7dDu_u4rLXSuXug-1" style="edgeStyle=none;html=1;exitX=1;exitY=0.5;exitDx=0;exitDy=0;" parent="1" source="oA5VD7dDu_u4rLXSuXug-2" target="oA5VD7dDu_u4rLXSuXug-4" edge="1">
                    <mxGeometry relative="1" as="geometry"/>
                </mxCell>
                <mxCell id="oA5VD7dDu_u4rLXSuXug-2" value="User" style="rounded=0;whiteSpace=wrap;html=1;" parent="1" vertex="1">
                    <mxGeometry x="210" y="50" width="90" height="40" as="geometry"/>
                </mxCell>
                <mxCell id="oA5VD7dDu_u4rLXSuXug-3" style="edgeStyle=none;html=1;exitX=0.5;exitY=1;exitDx=0;exitDy=0;entryX=0.5;entryY=0;entryDx=0;entryDy=0;shape=flexArrow;startArrow=block;" parent="1" source="oA5VD7dDu_u4rLXSuXug-4" target="oA5VD7dDu_u4rLXSuXug-5" edge="1">
                    <mxGeometry relative="1" as="geometry"/>
                </mxCell>
                <mxCell id="oA5VD7dDu_u4rLXSuXug-4" value="Mobile System" style="ellipse;whiteSpace=wrap;html=1;" parent="1" vertex="1">
                    <mxGeometry x="410" y="30" width="120" height="80" as="geometry"/>
                </mxCell>
                <mxCell id="oA5VD7dDu_u4rLXSuXug-5" value="Modify System" style="ellipse;whiteSpace=wrap;html=1;" parent="1" vertex="1">
                    <mxGeometry x="410" y="200" width="120" height="80" as="geometry"/>
                </mxCell>
                <mxCell id="oA5VD7dDu_u4rLXSuXug-6" style="edgeStyle=none;html=1;exitX=1;exitY=0.5;exitDx=0;exitDy=0;exitPerimeter=0;startArrow=oval;endArrow=oval;endFill=1;startFill=1;" parent="1" source="oA5VD7dDu_u4rLXSuXug-7" target="oA5VD7dDu_u4rLXSuXug-5" edge="1">
                    <mxGeometry relative="1" as="geometry"/>
                </mxCell>
                <mxCell id="oA5VD7dDu_u4rLXSuXug-7" value="MySQL" style="shape=cylinder3;whiteSpace=wrap;html=1;boundedLbl=1;backgroundOutline=1;size=15;" parent="1" vertex="1">
                    <mxGeometry x="225" y="200" width="60" height="80" as="geometry"/>
                </mxCell>
                <mxCell id="oA5VD7dDu_u4rLXSuXug-8" value="" style="group" parent="1" vertex="1" connectable="0">
                    <mxGeometry x="150" y="310" width="500" height="200" as="geometry"/>
                </mxCell>
                <mxCell id="oA5VD7dDu_u4rLXSuXug-9" value="" style="rounded=0;whiteSpace=wrap;html=1;container=0;" parent="oA5VD7dDu_u4rLXSuXug-8" vertex="1">
                    <mxGeometry width="500" height="200" as="geometry"/>
                </mxCell>
                <mxCell id="oA5VD7dDu_u4rLXSuXug-10" value="Legend" style="text;html=1;strokeColor=default;fillColor=none;align=center;verticalAlign=middle;whiteSpace=wrap;rounded=0;container=0;" parent="oA5VD7dDu_u4rLXSuXug-8" vertex="1">
                    <mxGeometry width="68.97196261682242" height="30" as="geometry"/>
                </mxCell>
                <mxCell id="oA5VD7dDu_u4rLXSuXug-11" value="" style="rounded=0;whiteSpace=wrap;html=1;strokeColor=default;container=0;" parent="oA5VD7dDu_u4rLXSuXug-8" vertex="1">
                    <mxGeometry x="22" y="60" width="78" height="40" as="geometry"/>
                </mxCell>
                <mxCell id="oA5VD7dDu_u4rLXSuXug-12" value="Entity" style="text;html=1;strokeColor=none;fillColor=none;align=center;verticalAlign=middle;whiteSpace=wrap;rounded=0;container=0;" parent="oA5VD7dDu_u4rLXSuXug-8" vertex="1">
                    <mxGeometry x="100" y="65" width="60" height="30" as="geometry"/>
                </mxCell>
                <mxCell id="oA5VD7dDu_u4rLXSuXug-13" value="A interact with B" style="text;html=1;strokeColor=none;fillColor=none;align=center;verticalAlign=middle;whiteSpace=wrap;rounded=0;container=0;" parent="oA5VD7dDu_u4rLXSuXug-8" vertex="1">
                    <mxGeometry x="61.669445983379546" y="140" width="103.90581717451524" height="30" as="geometry"/>
                </mxCell>
                <mxCell id="oA5VD7dDu_u4rLXSuXug-14" value="" style="endArrow=classic;html=1;" parent="oA5VD7dDu_u4rLXSuXug-8" target="oA5VD7dDu_u4rLXSuXug-13" edge="1">
                    <mxGeometry width="50" height="50" relative="1" as="geometry">
                        <mxPoint x="21.99631578947367" y="155" as="sourcePoint"/>
                        <mxPoint x="78.67221606648195" y="155" as="targetPoint"/>
                    </mxGeometry>
                </mxCell>
                <mxCell id="oA5VD7dDu_u4rLXSuXug-15" value="" style="endArrow=classic;startArrow=classic;html=1;shape=flexArrow;" parent="oA5VD7dDu_u4rLXSuXug-8" target="oA5VD7dDu_u4rLXSuXug-16" edge="1">
                    <mxGeometry width="50" height="50" relative="1" as="geometry">
                        <mxPoint x="195.64501385041547" y="155" as="sourcePoint"/>
                        <mxPoint x="120.07714681440444" y="155" as="targetPoint"/>
                    </mxGeometry>
                </mxCell>
                <mxCell id="oA5VD7dDu_u4rLXSuXug-16" value="HTTP" style="text;html=1;strokeColor=none;fillColor=none;align=center;verticalAlign=middle;whiteSpace=wrap;rounded=0;container=0;" parent="oA5VD7dDu_u4rLXSuXug-8" vertex="1">
                    <mxGeometry x="261.7668975069252" y="140" width="56.67590027700831" height="30" as="geometry"/>
                </mxCell>
                <mxCell id="oA5VD7dDu_u4rLXSuXug-17" value="" style="endArrow=oval;startArrow=oval;html=1;startFill=1;endFill=1;" parent="oA5VD7dDu_u4rLXSuXug-8" target="oA5VD7dDu_u4rLXSuXug-18" edge="1">
                    <mxGeometry width="50" height="50" relative="1" as="geometry">
                        <mxPoint x="365.9986980609418" y="155" as="sourcePoint"/>
                        <mxPoint x="309.32279778393354" y="155" as="targetPoint"/>
                    </mxGeometry>
                </mxCell>
                <mxCell id="oA5VD7dDu_u4rLXSuXug-18" value="DB Connector" style="text;html=1;strokeColor=none;fillColor=none;align=center;verticalAlign=middle;whiteSpace=wrap;rounded=0;container=0;" parent="oA5VD7dDu_u4rLXSuXug-8" vertex="1">
                    <mxGeometry x="403.78263157894736" y="140" width="94.45983379501385" height="30" as="geometry"/>
                </mxCell>
                <mxCell id="oA5VD7dDu_u4rLXSuXug-19" value="" style="shape=cylinder3;whiteSpace=wrap;html=1;boundedLbl=1;backgroundOutline=1;size=15;rounded=0;strokeColor=default;container=0;" parent="oA5VD7dDu_u4rLXSuXug-8" vertex="1">
                    <mxGeometry x="366.00058171745155" y="47.5" width="45.340720221606645" height="65" as="geometry"/>
                </mxCell>
                <mxCell id="oA5VD7dDu_u4rLXSuXug-20" value="Database" style="text;html=1;strokeColor=none;fillColor=none;align=center;verticalAlign=middle;whiteSpace=wrap;rounded=0;container=0;" parent="oA5VD7dDu_u4rLXSuXug-8" vertex="1">
                    <mxGeometry x="422.67648199445983" y="70" width="56.67590027700831" height="30" as="geometry"/>
                </mxCell>
                <mxCell id="oA5VD7dDu_u4rLXSuXug-21" value="" style="ellipse;whiteSpace=wrap;html=1;rounded=0;strokeColor=default;container=0;" parent="oA5VD7dDu_u4rLXSuXug-8" vertex="1">
                    <mxGeometry x="195.64288088642655" y="60" width="73.6786703601108" height="40" as="geometry"/>
                </mxCell>
                <mxCell id="oA5VD7dDu_u4rLXSuXug-22" value="System" style="text;html=1;strokeColor=none;fillColor=none;align=center;verticalAlign=middle;whiteSpace=wrap;rounded=0;container=0;" parent="oA5VD7dDu_u4rLXSuXug-8" vertex="1">
                    <mxGeometry x="269.32155124653735" y="65" width="56.67590027700831" height="30" as="geometry"/>
                </mxCell>
                <mxCell id="baP0Ny5ovf0I5skfjaz7-22" value="" style="group" parent="1" vertex="1" connectable="0">
                    <mxGeometry x="200" y="570" width="390" height="240" as="geometry"/>
                </mxCell>
                <mxCell id="igkp08jf0tPjdROb-3-O-1" value="" style="rounded=0;whiteSpace=wrap;html=1;strokeColor=default;dashed=1;container=0;" parent="baP0Ny5ovf0I5skfjaz7-22" vertex="1">
                    <mxGeometry x="50" y="60" width="340" height="180" as="geometry"/>
                </mxCell>
                <mxCell id="baP0Ny5ovf0I5skfjaz7-1" value="Modify System" style="text;html=1;strokeColor=default;fillColor=none;align=center;verticalAlign=middle;whiteSpace=wrap;rounded=0;" parent="baP0Ny5ovf0I5skfjaz7-22" vertex="1">
                    <mxGeometry x="50" y="60" width="115" height="30" as="geometry"/>
                </mxCell>
                <mxCell id="baP0Ny5ovf0I5skfjaz7-4" style="edgeStyle=none;html=1;exitX=0;exitY=0.5;exitDx=0;exitDy=0;startArrow=oval;startFill=1;endArrow=oval;endFill=1;" parent="baP0Ny5ovf0I5skfjaz7-22" source="baP0Ny5ovf0I5skfjaz7-2" edge="1">
                    <mxGeometry relative="1" as="geometry">
                        <mxPoint y="200" as="targetPoint"/>
                    </mxGeometry>
                </mxCell>
                <mxCell id="baP0Ny5ovf0I5skfjaz7-5" style="edgeStyle=none;html=1;exitX=0.5;exitY=0;exitDx=0;exitDy=0;startArrow=oval;startFill=1;endArrow=oval;endFill=1;shape=flexArrow;" parent="baP0Ny5ovf0I5skfjaz7-22" source="igkp08jf0tPjdROb-3-O-2" edge="1">
                    <mxGeometry relative="1" as="geometry">
                        <mxPoint x="300" as="targetPoint"/>
                    </mxGeometry>
                </mxCell>
                <mxCell id="igkp08jf0tPjdROb-3-O-2" value="Modify User" style="ellipse;whiteSpace=wrap;html=1;strokeColor=default;" parent="baP0Ny5ovf0I5skfjaz7-22" vertex="1">
                    <mxGeometry x="250" y="125" width="100" height="65" as="geometry"/>
                </mxCell>
                <mxCell id="baP0Ny5ovf0I5skfjaz7-2" value="Check Valid Input" style="shape=hexagon;perimeter=hexagonPerimeter2;whiteSpace=wrap;html=1;fixedSize=1;strokeColor=default;" parent="baP0Ny5ovf0I5skfjaz7-22" vertex="1">
                    <mxGeometry x="90" y="127.5" width="120" height="60" as="geometry"/>
                </mxCell>
                <mxCell id="baP0Ny5ovf0I5skfjaz7-3" style="edgeStyle=none;html=1;exitX=0;exitY=0.5;exitDx=0;exitDy=0;entryX=1;entryY=0.5;entryDx=0;entryDy=0;startArrow=none;startFill=0;endArrow=classic;endFill=1;" parent="baP0Ny5ovf0I5skfjaz7-22" source="igkp08jf0tPjdROb-3-O-2" target="baP0Ny5ovf0I5skfjaz7-2" edge="1">
                    <mxGeometry relative="1" as="geometry"/>
                </mxCell>
                <mxCell id="xN-bg3FKHDzO45t4zKS4-14" value="" style="group" parent="1" vertex="1" connectable="0">
                    <mxGeometry x="183" y="846" width="462" height="160" as="geometry"/>
                </mxCell>
                <mxCell id="xN-bg3FKHDzO45t4zKS4-15" value="" style="rounded=0;whiteSpace=wrap;html=1;container=0;" parent="xN-bg3FKHDzO45t4zKS4-14" vertex="1">
                    <mxGeometry width="462" height="160" as="geometry"/>
                </mxCell>
                <mxCell id="xN-bg3FKHDzO45t4zKS4-16" value="Legend" style="text;html=1;strokeColor=default;fillColor=none;align=center;verticalAlign=middle;whiteSpace=wrap;rounded=0;container=0;" parent="xN-bg3FKHDzO45t4zKS4-14" vertex="1">
                    <mxGeometry width="63.73009345794392" height="30" as="geometry"/>
                </mxCell>
                <mxCell id="xN-bg3FKHDzO45t4zKS4-17" value="A interact with B" style="text;html=1;strokeColor=none;fillColor=none;align=center;verticalAlign=middle;whiteSpace=wrap;rounded=0;container=0;" parent="xN-bg3FKHDzO45t4zKS4-14" vertex="1">
                    <mxGeometry x="100.39208808864272" y="120" width="96.00897506925209" height="30" as="geometry"/>
                </mxCell>
                <mxCell id="xN-bg3FKHDzO45t4zKS4-18" value="" style="endArrow=classic;html=1;" parent="xN-bg3FKHDzO45t4zKS4-14" target="xN-bg3FKHDzO45t4zKS4-17" edge="1">
                    <mxGeometry width="50" height="50" relative="1" as="geometry">
                        <mxPoint x="63.73411578947369" y="135" as="sourcePoint"/>
                        <mxPoint x="116.10264764542934" y="135" as="targetPoint"/>
                    </mxGeometry>
                </mxCell>
                <mxCell id="xN-bg3FKHDzO45t4zKS4-19" value="" style="endArrow=diamondThin;startArrow=diamondThin;html=1;startFill=0;endFill=0;shape=flexArrow;" parent="xN-bg3FKHDzO45t4zKS4-14" target="xN-bg3FKHDzO45t4zKS4-20" edge="1">
                    <mxGeometry width="50" height="50" relative="1" as="geometry">
                        <mxPoint x="332.63539279778394" y="72.5" as="sourcePoint"/>
                        <mxPoint x="262.8106836565097" y="72.5" as="targetPoint"/>
                    </mxGeometry>
                </mxCell>
                <mxCell id="xN-bg3FKHDzO45t4zKS4-20" value="HTTP" style="text;html=1;strokeColor=none;fillColor=none;align=center;verticalAlign=middle;whiteSpace=wrap;rounded=0;container=0;" parent="xN-bg3FKHDzO45t4zKS4-14" vertex="1">
                    <mxGeometry x="393.73201329639886" y="57.5" width="52.36853185595568" height="30" as="geometry"/>
                </mxCell>
                <mxCell id="xN-bg3FKHDzO45t4zKS4-21" value="" style="endArrow=oval;startArrow=oval;html=1;startFill=1;endFill=1;" parent="xN-bg3FKHDzO45t4zKS4-14" target="xN-bg3FKHDzO45t4zKS4-22" edge="1">
                    <mxGeometry width="50" height="50" relative="1" as="geometry">
                        <mxPoint x="252.60191700831024" y="135" as="sourcePoint"/>
                        <mxPoint x="200.2333851523546" y="135" as="targetPoint"/>
                    </mxGeometry>
                </mxCell>
                <mxCell id="xN-bg3FKHDzO45t4zKS4-22" value="DB Connector" style="text;html=1;strokeColor=none;fillColor=none;align=center;verticalAlign=middle;whiteSpace=wrap;rounded=0;container=0;" parent="xN-bg3FKHDzO45t4zKS4-14" vertex="1">
                    <mxGeometry x="287.51427157894733" y="120" width="87.2808864265928" height="30" as="geometry"/>
                </mxCell>
                <mxCell id="xN-bg3FKHDzO45t4zKS4-23" value="" style="ellipse;whiteSpace=wrap;html=1;rounded=0;strokeColor=default;container=0;" parent="xN-bg3FKHDzO45t4zKS4-14" vertex="1">
                    <mxGeometry x="21.642741939058137" y="52.5" width="68.07909141274239" height="40" as="geometry"/>
                </mxCell>
                <mxCell id="xN-bg3FKHDzO45t4zKS4-24" value="Process" style="text;html=1;strokeColor=none;fillColor=none;align=center;verticalAlign=middle;whiteSpace=wrap;rounded=0;container=0;" parent="xN-bg3FKHDzO45t4zKS4-14" vertex="1">
                    <mxGeometry x="89.72183335180053" y="57.5" width="52.36853185595568" height="30" as="geometry"/>
                </mxCell>
                <mxCell id="xN-bg3FKHDzO45t4zKS4-25" value="" style="shape=hexagon;perimeter=hexagonPerimeter2;whiteSpace=wrap;html=1;fixedSize=1;strokeColor=default;" parent="xN-bg3FKHDzO45t4zKS4-14" vertex="1">
                    <mxGeometry x="178.33200000000002" y="50" width="73.92" height="45" as="geometry"/>
                </mxCell>
                <mxCell id="xN-bg3FKHDzO45t4zKS4-26" value="Logic" style="text;html=1;strokeColor=none;fillColor=none;align=center;verticalAlign=middle;whiteSpace=wrap;rounded=0;" parent="xN-bg3FKHDzO45t4zKS4-14" vertex="1">
                    <mxGeometry x="252.252" y="57.5" width="55.440000000000005" height="30" as="geometry"/>
                </mxCell>
            </root>
        </mxGraphModel>
    </diagram>
    <diagram id="8H36zTBauG6sN9jjxPS7" name="Create Group (Performance)">
        <mxGraphModel dx="906" dy="682" grid="0" gridSize="10" guides="1" tooltips="1" connect="1" arrows="1" fold="1" page="1" pageScale="1" pageWidth="850" pageHeight="1100" math="0" shadow="0">
            <root>
                <mxCell id="0"/>
                <mxCell id="1" parent="0"/>
                <mxCell id="Y243kLFb1c4PPUjWJ48x-1" value="" style="group" parent="1" vertex="1" connectable="0">
                    <mxGeometry x="324" y="631" width="220" height="190" as="geometry"/>
                </mxCell>
                <mxCell id="w3PYK9z3b_6fgZBHlcgD-1" value="" style="rounded=0;whiteSpace=wrap;html=1;strokeColor=default;dashed=1;container=0;" parent="Y243kLFb1c4PPUjWJ48x-1" vertex="1">
                    <mxGeometry width="220" height="190" as="geometry"/>
                </mxCell>
                <mxCell id="w3PYK9z3b_6fgZBHlcgD-2" value="Group System" style="text;html=1;strokeColor=default;fillColor=none;align=center;verticalAlign=middle;whiteSpace=wrap;rounded=0;container=0;" parent="Y243kLFb1c4PPUjWJ48x-1" vertex="1">
                    <mxGeometry width="100" height="30" as="geometry"/>
                </mxCell>
                <mxCell id="yRDkvlXQLiSWiKFZxkUZ-1" style="edgeStyle=none;html=1;exitX=1;exitY=0.5;exitDx=0;exitDy=0;" parent="1" source="yRDkvlXQLiSWiKFZxkUZ-2" target="yRDkvlXQLiSWiKFZxkUZ-4" edge="1">
                    <mxGeometry relative="1" as="geometry"/>
                </mxCell>
                <mxCell id="yRDkvlXQLiSWiKFZxkUZ-2" value="User" style="rounded=0;whiteSpace=wrap;html=1;" parent="1" vertex="1">
                    <mxGeometry x="210" y="50" width="90" height="40" as="geometry"/>
                </mxCell>
                <mxCell id="yRDkvlXQLiSWiKFZxkUZ-3" style="edgeStyle=none;html=1;exitX=0.5;exitY=1;exitDx=0;exitDy=0;entryX=0.5;entryY=0;entryDx=0;entryDy=0;shape=flexArrow;startArrow=block;" parent="1" source="yRDkvlXQLiSWiKFZxkUZ-4" target="yRDkvlXQLiSWiKFZxkUZ-5" edge="1">
                    <mxGeometry relative="1" as="geometry"/>
                </mxCell>
                <mxCell id="yRDkvlXQLiSWiKFZxkUZ-4" value="Mobile System" style="ellipse;whiteSpace=wrap;html=1;" parent="1" vertex="1">
                    <mxGeometry x="410" y="30" width="120" height="80" as="geometry"/>
                </mxCell>
                <mxCell id="yRDkvlXQLiSWiKFZxkUZ-5" value="Group System&amp;nbsp;" style="ellipse;whiteSpace=wrap;html=1;" parent="1" vertex="1">
                    <mxGeometry x="410" y="200" width="120" height="80" as="geometry"/>
                </mxCell>
                <mxCell id="yRDkvlXQLiSWiKFZxkUZ-6" style="edgeStyle=none;html=1;exitX=1;exitY=0.5;exitDx=0;exitDy=0;exitPerimeter=0;startArrow=oval;endArrow=oval;endFill=1;startFill=1;" parent="1" source="yRDkvlXQLiSWiKFZxkUZ-7" target="yRDkvlXQLiSWiKFZxkUZ-5" edge="1">
                    <mxGeometry relative="1" as="geometry"/>
                </mxCell>
                <mxCell id="yRDkvlXQLiSWiKFZxkUZ-7" value="MySQL" style="shape=cylinder3;whiteSpace=wrap;html=1;boundedLbl=1;backgroundOutline=1;size=15;" parent="1" vertex="1">
                    <mxGeometry x="225" y="200" width="60" height="80" as="geometry"/>
                </mxCell>
                <mxCell id="yRDkvlXQLiSWiKFZxkUZ-8" value="" style="group" parent="1" vertex="1" connectable="0">
                    <mxGeometry x="150" y="310" width="500" height="200" as="geometry"/>
                </mxCell>
                <mxCell id="yRDkvlXQLiSWiKFZxkUZ-9" value="" style="rounded=0;whiteSpace=wrap;html=1;container=0;" parent="yRDkvlXQLiSWiKFZxkUZ-8" vertex="1">
                    <mxGeometry width="500" height="200" as="geometry"/>
                </mxCell>
                <mxCell id="yRDkvlXQLiSWiKFZxkUZ-10" value="Legend" style="text;html=1;strokeColor=default;fillColor=none;align=center;verticalAlign=middle;whiteSpace=wrap;rounded=0;container=0;" parent="yRDkvlXQLiSWiKFZxkUZ-8" vertex="1">
                    <mxGeometry width="68.97196261682242" height="30" as="geometry"/>
                </mxCell>
                <mxCell id="yRDkvlXQLiSWiKFZxkUZ-11" value="" style="rounded=0;whiteSpace=wrap;html=1;strokeColor=default;container=0;" parent="yRDkvlXQLiSWiKFZxkUZ-8" vertex="1">
                    <mxGeometry x="22" y="60" width="78" height="40" as="geometry"/>
                </mxCell>
                <mxCell id="yRDkvlXQLiSWiKFZxkUZ-12" value="Entity" style="text;html=1;strokeColor=none;fillColor=none;align=center;verticalAlign=middle;whiteSpace=wrap;rounded=0;container=0;" parent="yRDkvlXQLiSWiKFZxkUZ-8" vertex="1">
                    <mxGeometry x="100" y="65" width="60" height="30" as="geometry"/>
                </mxCell>
                <mxCell id="yRDkvlXQLiSWiKFZxkUZ-13" value="A interact with B" style="text;html=1;strokeColor=none;fillColor=none;align=center;verticalAlign=middle;whiteSpace=wrap;rounded=0;container=0;" parent="yRDkvlXQLiSWiKFZxkUZ-8" vertex="1">
                    <mxGeometry x="61.669445983379546" y="140" width="103.90581717451524" height="30" as="geometry"/>
                </mxCell>
                <mxCell id="yRDkvlXQLiSWiKFZxkUZ-14" value="" style="endArrow=classic;html=1;" parent="yRDkvlXQLiSWiKFZxkUZ-8" target="yRDkvlXQLiSWiKFZxkUZ-13" edge="1">
                    <mxGeometry width="50" height="50" relative="1" as="geometry">
                        <mxPoint x="21.99631578947367" y="155" as="sourcePoint"/>
                        <mxPoint x="78.67221606648195" y="155" as="targetPoint"/>
                    </mxGeometry>
                </mxCell>
                <mxCell id="yRDkvlXQLiSWiKFZxkUZ-15" value="" style="endArrow=classic;startArrow=classic;html=1;shape=flexArrow;" parent="yRDkvlXQLiSWiKFZxkUZ-8" target="yRDkvlXQLiSWiKFZxkUZ-16" edge="1">
                    <mxGeometry width="50" height="50" relative="1" as="geometry">
                        <mxPoint x="195.64501385041547" y="155" as="sourcePoint"/>
                        <mxPoint x="120.07714681440444" y="155" as="targetPoint"/>
                    </mxGeometry>
                </mxCell>
                <mxCell id="yRDkvlXQLiSWiKFZxkUZ-16" value="HTTP" style="text;html=1;strokeColor=none;fillColor=none;align=center;verticalAlign=middle;whiteSpace=wrap;rounded=0;container=0;" parent="yRDkvlXQLiSWiKFZxkUZ-8" vertex="1">
                    <mxGeometry x="261.7668975069252" y="140" width="56.67590027700831" height="30" as="geometry"/>
                </mxCell>
                <mxCell id="yRDkvlXQLiSWiKFZxkUZ-17" value="" style="endArrow=oval;startArrow=oval;html=1;startFill=1;endFill=1;" parent="yRDkvlXQLiSWiKFZxkUZ-8" target="yRDkvlXQLiSWiKFZxkUZ-18" edge="1">
                    <mxGeometry width="50" height="50" relative="1" as="geometry">
                        <mxPoint x="365.9986980609418" y="155" as="sourcePoint"/>
                        <mxPoint x="309.32279778393354" y="155" as="targetPoint"/>
                    </mxGeometry>
                </mxCell>
                <mxCell id="yRDkvlXQLiSWiKFZxkUZ-18" value="DB Connector" style="text;html=1;strokeColor=none;fillColor=none;align=center;verticalAlign=middle;whiteSpace=wrap;rounded=0;container=0;" parent="yRDkvlXQLiSWiKFZxkUZ-8" vertex="1">
                    <mxGeometry x="403.78263157894736" y="140" width="94.45983379501385" height="30" as="geometry"/>
                </mxCell>
                <mxCell id="yRDkvlXQLiSWiKFZxkUZ-19" value="" style="shape=cylinder3;whiteSpace=wrap;html=1;boundedLbl=1;backgroundOutline=1;size=15;rounded=0;strokeColor=default;container=0;" parent="yRDkvlXQLiSWiKFZxkUZ-8" vertex="1">
                    <mxGeometry x="366.00058171745155" y="47.5" width="45.340720221606645" height="65" as="geometry"/>
                </mxCell>
                <mxCell id="yRDkvlXQLiSWiKFZxkUZ-20" value="Database" style="text;html=1;strokeColor=none;fillColor=none;align=center;verticalAlign=middle;whiteSpace=wrap;rounded=0;container=0;" parent="yRDkvlXQLiSWiKFZxkUZ-8" vertex="1">
                    <mxGeometry x="422.67648199445983" y="70" width="56.67590027700831" height="30" as="geometry"/>
                </mxCell>
                <mxCell id="yRDkvlXQLiSWiKFZxkUZ-21" value="" style="ellipse;whiteSpace=wrap;html=1;rounded=0;strokeColor=default;container=0;" parent="yRDkvlXQLiSWiKFZxkUZ-8" vertex="1">
                    <mxGeometry x="195.64288088642655" y="60" width="73.6786703601108" height="40" as="geometry"/>
                </mxCell>
                <mxCell id="yRDkvlXQLiSWiKFZxkUZ-22" value="System" style="text;html=1;strokeColor=none;fillColor=none;align=center;verticalAlign=middle;whiteSpace=wrap;rounded=0;container=0;" parent="yRDkvlXQLiSWiKFZxkUZ-8" vertex="1">
                    <mxGeometry x="269.32155124653735" y="65" width="56.67590027700831" height="30" as="geometry"/>
                </mxCell>
                <mxCell id="w3PYK9z3b_6fgZBHlcgD-4" value="Create Group" style="ellipse;whiteSpace=wrap;html=1;strokeColor=default;" parent="1" vertex="1">
                    <mxGeometry x="419" y="701" width="90" height="60" as="geometry"/>
                </mxCell>
                <mxCell id="w3PYK9z3b_6fgZBHlcgD-5" value="" style="shape=flexArrow;endArrow=classic;startArrow=classic;html=1;exitX=0.5;exitY=0;exitDx=0;exitDy=0;" parent="1" source="w3PYK9z3b_6fgZBHlcgD-4" edge="1">
                    <mxGeometry width="100" height="100" relative="1" as="geometry">
                        <mxPoint x="414" y="821" as="sourcePoint"/>
                        <mxPoint x="464" y="581" as="targetPoint"/>
                    </mxGeometry>
                </mxCell>
                <mxCell id="jRMG5wcLnasK8Fae-U8X-2" style="edgeStyle=none;html=1;entryX=0;entryY=0.5;entryDx=0;entryDy=0;endArrow=oval;endFill=1;startArrow=oval;startFill=1;" parent="1" target="w3PYK9z3b_6fgZBHlcgD-4" edge="1">
                    <mxGeometry relative="1" as="geometry">
                        <mxPoint x="264" y="791" as="sourcePoint"/>
                    </mxGeometry>
                </mxCell>
                <mxCell id="Y243kLFb1c4PPUjWJ48x-17" value="" style="group" parent="1" vertex="1" connectable="0">
                    <mxGeometry x="190" y="840" width="500" height="130" as="geometry"/>
                </mxCell>
                <mxCell id="Y243kLFb1c4PPUjWJ48x-3" value="" style="rounded=0;whiteSpace=wrap;html=1;container=0;" parent="Y243kLFb1c4PPUjWJ48x-17" vertex="1">
                    <mxGeometry width="500" height="130" as="geometry"/>
                </mxCell>
                <mxCell id="Y243kLFb1c4PPUjWJ48x-4" value="Legend" style="text;html=1;strokeColor=default;fillColor=none;align=center;verticalAlign=middle;whiteSpace=wrap;rounded=0;container=0;" parent="Y243kLFb1c4PPUjWJ48x-17" vertex="1">
                    <mxGeometry width="68.97196261682242" height="30" as="geometry"/>
                </mxCell>
                <mxCell id="Y243kLFb1c4PPUjWJ48x-9" value="" style="endArrow=classic;startArrow=classic;html=1;shape=flexArrow;" parent="Y243kLFb1c4PPUjWJ48x-17" target="Y243kLFb1c4PPUjWJ48x-10" edge="1">
                    <mxGeometry width="50" height="50" relative="1" as="geometry">
                        <mxPoint x="199.9950138504155" y="80" as="sourcePoint"/>
                        <mxPoint x="124.42714681440441" y="80" as="targetPoint"/>
                    </mxGeometry>
                </mxCell>
                <mxCell id="Y243kLFb1c4PPUjWJ48x-10" value="HTTP" style="text;html=1;strokeColor=none;fillColor=none;align=center;verticalAlign=middle;whiteSpace=wrap;rounded=0;container=0;" parent="Y243kLFb1c4PPUjWJ48x-17" vertex="1">
                    <mxGeometry x="266.1168975069252" y="65" width="56.67590027700831" height="30" as="geometry"/>
                </mxCell>
                <mxCell id="Y243kLFb1c4PPUjWJ48x-11" value="" style="endArrow=oval;startArrow=oval;html=1;startFill=1;endFill=1;" parent="Y243kLFb1c4PPUjWJ48x-17" target="Y243kLFb1c4PPUjWJ48x-12" edge="1">
                    <mxGeometry width="50" height="50" relative="1" as="geometry">
                        <mxPoint x="349.9986980609418" y="80" as="sourcePoint"/>
                        <mxPoint x="293.32279778393354" y="80" as="targetPoint"/>
                    </mxGeometry>
                </mxCell>
                <mxCell id="Y243kLFb1c4PPUjWJ48x-12" value="DB Connector" style="text;html=1;strokeColor=none;fillColor=none;align=center;verticalAlign=middle;whiteSpace=wrap;rounded=0;container=0;" parent="Y243kLFb1c4PPUjWJ48x-17" vertex="1">
                    <mxGeometry x="387.7826315789473" y="65" width="94.45983379501385" height="30" as="geometry"/>
                </mxCell>
                <mxCell id="Y243kLFb1c4PPUjWJ48x-15" value="" style="ellipse;whiteSpace=wrap;html=1;rounded=0;strokeColor=default;container=0;" parent="Y243kLFb1c4PPUjWJ48x-17" vertex="1">
                    <mxGeometry x="30.002880886426567" y="60" width="73.6786703601108" height="40" as="geometry"/>
                </mxCell>
                <mxCell id="Y243kLFb1c4PPUjWJ48x-16" value="Process" style="text;html=1;strokeColor=none;fillColor=none;align=center;verticalAlign=middle;whiteSpace=wrap;rounded=0;container=0;" parent="Y243kLFb1c4PPUjWJ48x-17" vertex="1">
                    <mxGeometry x="103.68155124653737" y="65" width="56.67590027700831" height="30" as="geometry"/>
                </mxCell>
            </root>
        </mxGraphModel>
    </diagram>
    <diagram id="_oNtQlA3dIBt6cjp7Sus" name="Update Group (Performance)">
        <mxGraphModel dx="906" dy="682" grid="1" gridSize="10" guides="1" tooltips="1" connect="1" arrows="1" fold="1" page="1" pageScale="1" pageWidth="850" pageHeight="1100" math="0" shadow="0">
            <root>
                <mxCell id="0"/>
                <mxCell id="1" parent="0"/>
                <mxCell id="0C96vRmDO2BO-JC7CF5X-23" value="" style="rounded=0;whiteSpace=wrap;html=1;strokeColor=default;dashed=1;container=0;" parent="1" vertex="1">
                    <mxGeometry x="310" y="665" width="310" height="165" as="geometry"/>
                </mxCell>
                <mxCell id="0C96vRmDO2BO-JC7CF5X-1" style="edgeStyle=none;html=1;exitX=1;exitY=0.5;exitDx=0;exitDy=0;" parent="1" source="0C96vRmDO2BO-JC7CF5X-2" target="0C96vRmDO2BO-JC7CF5X-4" edge="1">
                    <mxGeometry relative="1" as="geometry"/>
                </mxCell>
                <mxCell id="0C96vRmDO2BO-JC7CF5X-2" value="User" style="rounded=0;whiteSpace=wrap;html=1;" parent="1" vertex="1">
                    <mxGeometry x="210" y="50" width="90" height="40" as="geometry"/>
                </mxCell>
                <mxCell id="0C96vRmDO2BO-JC7CF5X-3" style="edgeStyle=none;html=1;exitX=0.5;exitY=1;exitDx=0;exitDy=0;entryX=0.5;entryY=0;entryDx=0;entryDy=0;shape=flexArrow;startArrow=block;" parent="1" source="0C96vRmDO2BO-JC7CF5X-4" target="0C96vRmDO2BO-JC7CF5X-5" edge="1">
                    <mxGeometry relative="1" as="geometry"/>
                </mxCell>
                <mxCell id="0C96vRmDO2BO-JC7CF5X-4" value="Mobile System" style="ellipse;whiteSpace=wrap;html=1;" parent="1" vertex="1">
                    <mxGeometry x="410" y="30" width="120" height="80" as="geometry"/>
                </mxCell>
                <mxCell id="0C96vRmDO2BO-JC7CF5X-5" value="Group System&amp;nbsp;" style="ellipse;whiteSpace=wrap;html=1;" parent="1" vertex="1">
                    <mxGeometry x="410" y="200" width="120" height="80" as="geometry"/>
                </mxCell>
                <mxCell id="0C96vRmDO2BO-JC7CF5X-6" style="edgeStyle=none;html=1;exitX=1;exitY=0.5;exitDx=0;exitDy=0;exitPerimeter=0;startArrow=oval;endArrow=oval;endFill=1;startFill=1;" parent="1" source="0C96vRmDO2BO-JC7CF5X-7" target="0C96vRmDO2BO-JC7CF5X-5" edge="1">
                    <mxGeometry relative="1" as="geometry"/>
                </mxCell>
                <mxCell id="0C96vRmDO2BO-JC7CF5X-7" value="MySQL" style="shape=cylinder3;whiteSpace=wrap;html=1;boundedLbl=1;backgroundOutline=1;size=15;" parent="1" vertex="1">
                    <mxGeometry x="225" y="200" width="60" height="80" as="geometry"/>
                </mxCell>
                <mxCell id="0C96vRmDO2BO-JC7CF5X-8" value="" style="group" parent="1" vertex="1" connectable="0">
                    <mxGeometry x="150" y="310" width="500" height="200" as="geometry"/>
                </mxCell>
                <mxCell id="0C96vRmDO2BO-JC7CF5X-9" value="" style="rounded=0;whiteSpace=wrap;html=1;container=0;" parent="0C96vRmDO2BO-JC7CF5X-8" vertex="1">
                    <mxGeometry width="500" height="200" as="geometry"/>
                </mxCell>
                <mxCell id="0C96vRmDO2BO-JC7CF5X-10" value="Legend" style="text;html=1;strokeColor=default;fillColor=none;align=center;verticalAlign=middle;whiteSpace=wrap;rounded=0;container=0;" parent="0C96vRmDO2BO-JC7CF5X-8" vertex="1">
                    <mxGeometry width="68.97196261682242" height="30" as="geometry"/>
                </mxCell>
                <mxCell id="0C96vRmDO2BO-JC7CF5X-11" value="" style="rounded=0;whiteSpace=wrap;html=1;strokeColor=default;container=0;" parent="0C96vRmDO2BO-JC7CF5X-8" vertex="1">
                    <mxGeometry x="22" y="60" width="78" height="40" as="geometry"/>
                </mxCell>
                <mxCell id="0C96vRmDO2BO-JC7CF5X-12" value="Entity" style="text;html=1;strokeColor=none;fillColor=none;align=center;verticalAlign=middle;whiteSpace=wrap;rounded=0;container=0;" parent="0C96vRmDO2BO-JC7CF5X-8" vertex="1">
                    <mxGeometry x="100" y="65" width="60" height="30" as="geometry"/>
                </mxCell>
                <mxCell id="0C96vRmDO2BO-JC7CF5X-13" value="A interact with B" style="text;html=1;strokeColor=none;fillColor=none;align=center;verticalAlign=middle;whiteSpace=wrap;rounded=0;container=0;" parent="0C96vRmDO2BO-JC7CF5X-8" vertex="1">
                    <mxGeometry x="61.669445983379546" y="140" width="103.90581717451524" height="30" as="geometry"/>
                </mxCell>
                <mxCell id="0C96vRmDO2BO-JC7CF5X-14" value="" style="endArrow=classic;html=1;" parent="0C96vRmDO2BO-JC7CF5X-8" target="0C96vRmDO2BO-JC7CF5X-13" edge="1">
                    <mxGeometry width="50" height="50" relative="1" as="geometry">
                        <mxPoint x="21.99631578947367" y="155" as="sourcePoint"/>
                        <mxPoint x="78.67221606648195" y="155" as="targetPoint"/>
                    </mxGeometry>
                </mxCell>
                <mxCell id="0C96vRmDO2BO-JC7CF5X-15" value="" style="endArrow=classic;startArrow=classic;html=1;shape=flexArrow;" parent="0C96vRmDO2BO-JC7CF5X-8" target="0C96vRmDO2BO-JC7CF5X-16" edge="1">
                    <mxGeometry width="50" height="50" relative="1" as="geometry">
                        <mxPoint x="195.64501385041547" y="155" as="sourcePoint"/>
                        <mxPoint x="120.07714681440444" y="155" as="targetPoint"/>
                    </mxGeometry>
                </mxCell>
                <mxCell id="0C96vRmDO2BO-JC7CF5X-16" value="HTTP" style="text;html=1;strokeColor=none;fillColor=none;align=center;verticalAlign=middle;whiteSpace=wrap;rounded=0;container=0;" parent="0C96vRmDO2BO-JC7CF5X-8" vertex="1">
                    <mxGeometry x="261.7668975069252" y="140" width="56.67590027700831" height="30" as="geometry"/>
                </mxCell>
                <mxCell id="0C96vRmDO2BO-JC7CF5X-17" value="" style="endArrow=oval;startArrow=oval;html=1;startFill=1;endFill=1;" parent="0C96vRmDO2BO-JC7CF5X-8" target="0C96vRmDO2BO-JC7CF5X-18" edge="1">
                    <mxGeometry width="50" height="50" relative="1" as="geometry">
                        <mxPoint x="365.9986980609418" y="155" as="sourcePoint"/>
                        <mxPoint x="309.32279778393354" y="155" as="targetPoint"/>
                    </mxGeometry>
                </mxCell>
                <mxCell id="0C96vRmDO2BO-JC7CF5X-18" value="DB Connector" style="text;html=1;strokeColor=none;fillColor=none;align=center;verticalAlign=middle;whiteSpace=wrap;rounded=0;container=0;" parent="0C96vRmDO2BO-JC7CF5X-8" vertex="1">
                    <mxGeometry x="403.78263157894736" y="140" width="94.45983379501385" height="30" as="geometry"/>
                </mxCell>
                <mxCell id="0C96vRmDO2BO-JC7CF5X-19" value="" style="shape=cylinder3;whiteSpace=wrap;html=1;boundedLbl=1;backgroundOutline=1;size=15;rounded=0;strokeColor=default;container=0;" parent="0C96vRmDO2BO-JC7CF5X-8" vertex="1">
                    <mxGeometry x="366.00058171745155" y="47.5" width="45.340720221606645" height="65" as="geometry"/>
                </mxCell>
                <mxCell id="0C96vRmDO2BO-JC7CF5X-20" value="Database" style="text;html=1;strokeColor=none;fillColor=none;align=center;verticalAlign=middle;whiteSpace=wrap;rounded=0;container=0;" parent="0C96vRmDO2BO-JC7CF5X-8" vertex="1">
                    <mxGeometry x="422.67648199445983" y="70" width="56.67590027700831" height="30" as="geometry"/>
                </mxCell>
                <mxCell id="0C96vRmDO2BO-JC7CF5X-21" value="" style="ellipse;whiteSpace=wrap;html=1;rounded=0;strokeColor=default;container=0;" parent="0C96vRmDO2BO-JC7CF5X-8" vertex="1">
                    <mxGeometry x="195.64288088642655" y="60" width="73.6786703601108" height="40" as="geometry"/>
                </mxCell>
                <mxCell id="0C96vRmDO2BO-JC7CF5X-22" value="System" style="text;html=1;strokeColor=none;fillColor=none;align=center;verticalAlign=middle;whiteSpace=wrap;rounded=0;container=0;" parent="0C96vRmDO2BO-JC7CF5X-8" vertex="1">
                    <mxGeometry x="269.32155124653735" y="65" width="56.67590027700831" height="30" as="geometry"/>
                </mxCell>
                <mxCell id="0C96vRmDO2BO-JC7CF5X-24" value="Group System" style="text;html=1;strokeColor=default;fillColor=none;align=center;verticalAlign=middle;whiteSpace=wrap;rounded=0;container=0;" parent="1" vertex="1">
                    <mxGeometry x="310" y="665" width="100" height="30" as="geometry"/>
                </mxCell>
                <mxCell id="8ibBZmKmyziae7oVnIJl-3" style="edgeStyle=none;html=1;exitX=0;exitY=0.5;exitDx=0;exitDy=0;entryX=1;entryY=0.5;entryDx=0;entryDy=0;startArrow=none;startFill=0;endArrow=classic;endFill=1;" parent="1" source="0C96vRmDO2BO-JC7CF5X-25" target="8ibBZmKmyziae7oVnIJl-1" edge="1">
                    <mxGeometry relative="1" as="geometry">
                        <Array as="points">
                            <mxPoint x="480" y="760"/>
                        </Array>
                    </mxGeometry>
                </mxCell>
                <mxCell id="0C96vRmDO2BO-JC7CF5X-25" value="Update Group" style="ellipse;whiteSpace=wrap;html=1;strokeColor=default;" parent="1" vertex="1">
                    <mxGeometry x="509.9994736842105" y="730" width="90" height="60" as="geometry"/>
                </mxCell>
                <mxCell id="0C96vRmDO2BO-JC7CF5X-26" value="" style="shape=flexArrow;endArrow=classic;startArrow=classic;html=1;exitX=0.5;exitY=0;exitDx=0;exitDy=0;" parent="1" source="0C96vRmDO2BO-JC7CF5X-25" edge="1">
                    <mxGeometry width="100" height="100" relative="1" as="geometry">
                        <mxPoint x="509.9994736842105" y="870" as="sourcePoint"/>
                        <mxPoint x="555.4731578947368" y="620" as="targetPoint"/>
                    </mxGeometry>
                </mxCell>
                <mxCell id="8ibBZmKmyziae7oVnIJl-4" style="edgeStyle=none;html=1;exitX=0;exitY=0.5;exitDx=0;exitDy=0;startArrow=oval;startFill=1;endArrow=oval;endFill=1;" parent="1" source="8ibBZmKmyziae7oVnIJl-1" edge="1">
                    <mxGeometry relative="1" as="geometry">
                        <mxPoint x="270" y="800" as="targetPoint"/>
                    </mxGeometry>
                </mxCell>
                <mxCell id="8ibBZmKmyziae7oVnIJl-1" value="Check Valid Update" style="shape=hexagon;perimeter=hexagonPerimeter2;whiteSpace=wrap;html=1;fixedSize=1;strokeColor=default;" parent="1" vertex="1">
                    <mxGeometry x="330" y="730" width="130" height="60" as="geometry"/>
                </mxCell>
                <mxCell id="ObHfRHIZatdQjLlAw5ua-1" value="" style="group" parent="1" vertex="1" connectable="0">
                    <mxGeometry x="220" y="850" width="500" height="160" as="geometry"/>
                </mxCell>
                <mxCell id="ObHfRHIZatdQjLlAw5ua-2" value="" style="rounded=0;whiteSpace=wrap;html=1;container=0;" parent="ObHfRHIZatdQjLlAw5ua-1" vertex="1">
                    <mxGeometry width="500" height="160" as="geometry"/>
                </mxCell>
                <mxCell id="ObHfRHIZatdQjLlAw5ua-3" value="Legend" style="text;html=1;strokeColor=default;fillColor=none;align=center;verticalAlign=middle;whiteSpace=wrap;rounded=0;container=0;" parent="ObHfRHIZatdQjLlAw5ua-1" vertex="1">
                    <mxGeometry width="68.97196261682242" height="30" as="geometry"/>
                </mxCell>
                <mxCell id="ObHfRHIZatdQjLlAw5ua-4" value="A interact with B" style="text;html=1;strokeColor=none;fillColor=none;align=center;verticalAlign=middle;whiteSpace=wrap;rounded=0;container=0;" parent="ObHfRHIZatdQjLlAw5ua-1" vertex="1">
                    <mxGeometry x="108.64944598337956" y="120" width="103.90581717451524" height="30" as="geometry"/>
                </mxCell>
                <mxCell id="ObHfRHIZatdQjLlAw5ua-5" value="" style="endArrow=classic;html=1;" parent="ObHfRHIZatdQjLlAw5ua-1" target="ObHfRHIZatdQjLlAw5ua-4" edge="1">
                    <mxGeometry width="50" height="50" relative="1" as="geometry">
                        <mxPoint x="68.97631578947369" y="135" as="sourcePoint"/>
                        <mxPoint x="125.65221606648197" y="135" as="targetPoint"/>
                    </mxGeometry>
                </mxCell>
                <mxCell id="ObHfRHIZatdQjLlAw5ua-6" value="" style="endArrow=diamondThin;startArrow=diamondThin;html=1;startFill=0;endFill=0;shape=flexArrow;" parent="ObHfRHIZatdQjLlAw5ua-1" target="ObHfRHIZatdQjLlAw5ua-7" edge="1">
                    <mxGeometry width="50" height="50" relative="1" as="geometry">
                        <mxPoint x="359.9950138504155" y="72.5" as="sourcePoint"/>
                        <mxPoint x="284.4271468144044" y="72.5" as="targetPoint"/>
                    </mxGeometry>
                </mxCell>
                <mxCell id="ObHfRHIZatdQjLlAw5ua-7" value="HTTP" style="text;html=1;strokeColor=none;fillColor=none;align=center;verticalAlign=middle;whiteSpace=wrap;rounded=0;container=0;" parent="ObHfRHIZatdQjLlAw5ua-1" vertex="1">
                    <mxGeometry x="426.11689750692517" y="57.5" width="56.67590027700831" height="30" as="geometry"/>
                </mxCell>
                <mxCell id="ObHfRHIZatdQjLlAw5ua-8" value="" style="endArrow=oval;startArrow=oval;html=1;startFill=1;endFill=1;" parent="ObHfRHIZatdQjLlAw5ua-1" target="ObHfRHIZatdQjLlAw5ua-9" edge="1">
                    <mxGeometry width="50" height="50" relative="1" as="geometry">
                        <mxPoint x="273.3786980609418" y="135" as="sourcePoint"/>
                        <mxPoint x="216.70279778393353" y="135" as="targetPoint"/>
                    </mxGeometry>
                </mxCell>
                <mxCell id="ObHfRHIZatdQjLlAw5ua-9" value="DB Connector" style="text;html=1;strokeColor=none;fillColor=none;align=center;verticalAlign=middle;whiteSpace=wrap;rounded=0;container=0;" parent="ObHfRHIZatdQjLlAw5ua-1" vertex="1">
                    <mxGeometry x="311.1626315789473" y="120" width="94.45983379501385" height="30" as="geometry"/>
                </mxCell>
                <mxCell id="ObHfRHIZatdQjLlAw5ua-10" value="" style="ellipse;whiteSpace=wrap;html=1;rounded=0;strokeColor=default;container=0;" parent="ObHfRHIZatdQjLlAw5ua-1" vertex="1">
                    <mxGeometry x="23.422880886426555" y="52.5" width="73.6786703601108" height="40" as="geometry"/>
                </mxCell>
                <mxCell id="ObHfRHIZatdQjLlAw5ua-11" value="Process" style="text;html=1;strokeColor=none;fillColor=none;align=center;verticalAlign=middle;whiteSpace=wrap;rounded=0;container=0;" parent="ObHfRHIZatdQjLlAw5ua-1" vertex="1">
                    <mxGeometry x="97.10155124653735" y="57.5" width="56.67590027700831" height="30" as="geometry"/>
                </mxCell>
                <mxCell id="ObHfRHIZatdQjLlAw5ua-12" value="" style="shape=hexagon;perimeter=hexagonPerimeter2;whiteSpace=wrap;html=1;fixedSize=1;strokeColor=default;" parent="ObHfRHIZatdQjLlAw5ua-1" vertex="1">
                    <mxGeometry x="193" y="50" width="80" height="45" as="geometry"/>
                </mxCell>
                <mxCell id="ObHfRHIZatdQjLlAw5ua-13" value="Logic" style="text;html=1;strokeColor=none;fillColor=none;align=center;verticalAlign=middle;whiteSpace=wrap;rounded=0;" parent="ObHfRHIZatdQjLlAw5ua-1" vertex="1">
                    <mxGeometry x="273" y="57.5" width="60" height="30" as="geometry"/>
                </mxCell>
            </root>
        </mxGraphModel>
    </diagram>
    <diagram id="FiyQS5wsq7zfi8td9JLh" name="Delete Group (Performance)">
        <mxGraphModel dx="906" dy="682" grid="0" gridSize="10" guides="1" tooltips="1" connect="1" arrows="1" fold="1" page="1" pageScale="1" pageWidth="850" pageHeight="1100" math="0" shadow="0">
            <root>
                <mxCell id="0"/>
                <mxCell id="1" parent="0"/>
                <mxCell id="4FEH8oUjgjF1YArjYAqR-1" style="edgeStyle=none;html=1;exitX=1;exitY=0.5;exitDx=0;exitDy=0;" parent="1" source="4FEH8oUjgjF1YArjYAqR-2" target="4FEH8oUjgjF1YArjYAqR-4" edge="1">
                    <mxGeometry relative="1" as="geometry"/>
                </mxCell>
                <mxCell id="4FEH8oUjgjF1YArjYAqR-2" value="User" style="rounded=0;whiteSpace=wrap;html=1;" parent="1" vertex="1">
                    <mxGeometry x="210" y="50" width="90" height="40" as="geometry"/>
                </mxCell>
                <mxCell id="4FEH8oUjgjF1YArjYAqR-3" style="edgeStyle=none;html=1;exitX=0.5;exitY=1;exitDx=0;exitDy=0;entryX=0.5;entryY=0;entryDx=0;entryDy=0;shape=flexArrow;startArrow=block;" parent="1" source="4FEH8oUjgjF1YArjYAqR-4" target="4FEH8oUjgjF1YArjYAqR-5" edge="1">
                    <mxGeometry relative="1" as="geometry"/>
                </mxCell>
                <mxCell id="4FEH8oUjgjF1YArjYAqR-4" value="Mobile System" style="ellipse;whiteSpace=wrap;html=1;" parent="1" vertex="1">
                    <mxGeometry x="410" y="30" width="120" height="80" as="geometry"/>
                </mxCell>
                <mxCell id="4FEH8oUjgjF1YArjYAqR-5" value="Group System&amp;nbsp;" style="ellipse;whiteSpace=wrap;html=1;" parent="1" vertex="1">
                    <mxGeometry x="410" y="200" width="120" height="80" as="geometry"/>
                </mxCell>
                <mxCell id="4FEH8oUjgjF1YArjYAqR-6" style="edgeStyle=none;html=1;exitX=1;exitY=0.5;exitDx=0;exitDy=0;exitPerimeter=0;startArrow=oval;endArrow=oval;endFill=1;startFill=1;" parent="1" source="4FEH8oUjgjF1YArjYAqR-7" target="4FEH8oUjgjF1YArjYAqR-5" edge="1">
                    <mxGeometry relative="1" as="geometry"/>
                </mxCell>
                <mxCell id="4FEH8oUjgjF1YArjYAqR-7" value="MySQL" style="shape=cylinder3;whiteSpace=wrap;html=1;boundedLbl=1;backgroundOutline=1;size=15;" parent="1" vertex="1">
                    <mxGeometry x="225" y="200" width="60" height="80" as="geometry"/>
                </mxCell>
                <mxCell id="4FEH8oUjgjF1YArjYAqR-8" value="" style="group" parent="1" vertex="1" connectable="0">
                    <mxGeometry x="150" y="310" width="500" height="200" as="geometry"/>
                </mxCell>
                <mxCell id="4FEH8oUjgjF1YArjYAqR-9" value="" style="rounded=0;whiteSpace=wrap;html=1;container=0;" parent="4FEH8oUjgjF1YArjYAqR-8" vertex="1">
                    <mxGeometry width="500" height="200" as="geometry"/>
                </mxCell>
                <mxCell id="4FEH8oUjgjF1YArjYAqR-10" value="Legend" style="text;html=1;strokeColor=default;fillColor=none;align=center;verticalAlign=middle;whiteSpace=wrap;rounded=0;container=0;" parent="4FEH8oUjgjF1YArjYAqR-8" vertex="1">
                    <mxGeometry width="68.97196261682242" height="30" as="geometry"/>
                </mxCell>
                <mxCell id="4FEH8oUjgjF1YArjYAqR-11" value="" style="rounded=0;whiteSpace=wrap;html=1;strokeColor=default;container=0;" parent="4FEH8oUjgjF1YArjYAqR-8" vertex="1">
                    <mxGeometry x="22" y="60" width="78" height="40" as="geometry"/>
                </mxCell>
                <mxCell id="4FEH8oUjgjF1YArjYAqR-12" value="Entity" style="text;html=1;strokeColor=none;fillColor=none;align=center;verticalAlign=middle;whiteSpace=wrap;rounded=0;container=0;" parent="4FEH8oUjgjF1YArjYAqR-8" vertex="1">
                    <mxGeometry x="100" y="65" width="60" height="30" as="geometry"/>
                </mxCell>
                <mxCell id="4FEH8oUjgjF1YArjYAqR-13" value="A interact with B" style="text;html=1;strokeColor=none;fillColor=none;align=center;verticalAlign=middle;whiteSpace=wrap;rounded=0;container=0;" parent="4FEH8oUjgjF1YArjYAqR-8" vertex="1">
                    <mxGeometry x="61.669445983379546" y="140" width="103.90581717451524" height="30" as="geometry"/>
                </mxCell>
                <mxCell id="4FEH8oUjgjF1YArjYAqR-14" value="" style="endArrow=classic;html=1;" parent="4FEH8oUjgjF1YArjYAqR-8" target="4FEH8oUjgjF1YArjYAqR-13" edge="1">
                    <mxGeometry width="50" height="50" relative="1" as="geometry">
                        <mxPoint x="21.99631578947367" y="155" as="sourcePoint"/>
                        <mxPoint x="78.67221606648195" y="155" as="targetPoint"/>
                    </mxGeometry>
                </mxCell>
                <mxCell id="4FEH8oUjgjF1YArjYAqR-15" value="" style="endArrow=classic;startArrow=classic;html=1;shape=flexArrow;" parent="4FEH8oUjgjF1YArjYAqR-8" target="4FEH8oUjgjF1YArjYAqR-16" edge="1">
                    <mxGeometry width="50" height="50" relative="1" as="geometry">
                        <mxPoint x="195.64501385041547" y="155" as="sourcePoint"/>
                        <mxPoint x="120.07714681440444" y="155" as="targetPoint"/>
                    </mxGeometry>
                </mxCell>
                <mxCell id="4FEH8oUjgjF1YArjYAqR-16" value="HTTP" style="text;html=1;strokeColor=none;fillColor=none;align=center;verticalAlign=middle;whiteSpace=wrap;rounded=0;container=0;" parent="4FEH8oUjgjF1YArjYAqR-8" vertex="1">
                    <mxGeometry x="261.7668975069252" y="140" width="56.67590027700831" height="30" as="geometry"/>
                </mxCell>
                <mxCell id="4FEH8oUjgjF1YArjYAqR-17" value="" style="endArrow=oval;startArrow=oval;html=1;startFill=1;endFill=1;" parent="4FEH8oUjgjF1YArjYAqR-8" target="4FEH8oUjgjF1YArjYAqR-18" edge="1">
                    <mxGeometry width="50" height="50" relative="1" as="geometry">
                        <mxPoint x="365.9986980609418" y="155" as="sourcePoint"/>
                        <mxPoint x="309.32279778393354" y="155" as="targetPoint"/>
                    </mxGeometry>
                </mxCell>
                <mxCell id="4FEH8oUjgjF1YArjYAqR-18" value="DB Connector" style="text;html=1;strokeColor=none;fillColor=none;align=center;verticalAlign=middle;whiteSpace=wrap;rounded=0;container=0;" parent="4FEH8oUjgjF1YArjYAqR-8" vertex="1">
                    <mxGeometry x="403.78263157894736" y="140" width="94.45983379501385" height="30" as="geometry"/>
                </mxCell>
                <mxCell id="4FEH8oUjgjF1YArjYAqR-19" value="" style="shape=cylinder3;whiteSpace=wrap;html=1;boundedLbl=1;backgroundOutline=1;size=15;rounded=0;strokeColor=default;container=0;" parent="4FEH8oUjgjF1YArjYAqR-8" vertex="1">
                    <mxGeometry x="366.00058171745155" y="47.5" width="45.340720221606645" height="65" as="geometry"/>
                </mxCell>
                <mxCell id="4FEH8oUjgjF1YArjYAqR-20" value="Database" style="text;html=1;strokeColor=none;fillColor=none;align=center;verticalAlign=middle;whiteSpace=wrap;rounded=0;container=0;" parent="4FEH8oUjgjF1YArjYAqR-8" vertex="1">
                    <mxGeometry x="422.67648199445983" y="70" width="56.67590027700831" height="30" as="geometry"/>
                </mxCell>
                <mxCell id="4FEH8oUjgjF1YArjYAqR-21" value="" style="ellipse;whiteSpace=wrap;html=1;rounded=0;strokeColor=default;container=0;" parent="4FEH8oUjgjF1YArjYAqR-8" vertex="1">
                    <mxGeometry x="195.64288088642655" y="60" width="73.6786703601108" height="40" as="geometry"/>
                </mxCell>
                <mxCell id="4FEH8oUjgjF1YArjYAqR-22" value="System" style="text;html=1;strokeColor=none;fillColor=none;align=center;verticalAlign=middle;whiteSpace=wrap;rounded=0;container=0;" parent="4FEH8oUjgjF1YArjYAqR-8" vertex="1">
                    <mxGeometry x="269.32155124653735" y="65" width="56.67590027700831" height="30" as="geometry"/>
                </mxCell>
                <mxCell id="4FEH8oUjgjF1YArjYAqR-23" value="" style="rounded=0;whiteSpace=wrap;html=1;strokeColor=default;dashed=1;container=0;" parent="1" vertex="1">
                    <mxGeometry x="230" y="690" width="340" height="190" as="geometry"/>
                </mxCell>
                <mxCell id="4FEH8oUjgjF1YArjYAqR-24" value="Group System" style="text;html=1;strokeColor=default;fillColor=none;align=center;verticalAlign=middle;whiteSpace=wrap;rounded=0;container=0;" parent="1" vertex="1">
                    <mxGeometry x="230" y="690" width="120" height="30" as="geometry"/>
                </mxCell>
                <mxCell id="4FEH8oUjgjF1YArjYAqR-25" value="Create Group" style="ellipse;whiteSpace=wrap;html=1;strokeColor=default;" parent="1" vertex="1">
                    <mxGeometry x="445" y="760" width="90" height="60" as="geometry"/>
                </mxCell>
                <mxCell id="4FEH8oUjgjF1YArjYAqR-26" value="" style="shape=flexArrow;endArrow=classic;startArrow=classic;html=1;exitX=0.5;exitY=0;exitDx=0;exitDy=0;" parent="1" source="4FEH8oUjgjF1YArjYAqR-25" edge="1">
                    <mxGeometry width="100" height="100" relative="1" as="geometry">
                        <mxPoint x="440" y="880" as="sourcePoint"/>
                        <mxPoint x="490" y="630" as="targetPoint"/>
                    </mxGeometry>
                </mxCell>
                <mxCell id="ncVSUf5paZ_WisSiF464-2" style="edgeStyle=none;html=1;exitX=1;exitY=0.5;exitDx=0;exitDy=0;entryX=0;entryY=0.5;entryDx=0;entryDy=0;" parent="1" source="ncVSUf5paZ_WisSiF464-1" target="4FEH8oUjgjF1YArjYAqR-25" edge="1">
                    <mxGeometry relative="1" as="geometry"/>
                </mxCell>
                <mxCell id="ncVSUf5paZ_WisSiF464-1" value="Check Group Id" style="shape=hexagon;perimeter=hexagonPerimeter2;whiteSpace=wrap;html=1;fixedSize=1;" parent="1" vertex="1">
                    <mxGeometry x="270" y="755" width="110" height="70" as="geometry"/>
                </mxCell>
                <mxCell id="ncVSUf5paZ_WisSiF464-3" value="" style="endArrow=oval;html=1;entryX=0;entryY=0.5;entryDx=0;entryDy=0;endFill=1;startArrow=oval;startFill=1;" parent="1" target="ncVSUf5paZ_WisSiF464-1" edge="1">
                    <mxGeometry width="50" height="50" relative="1" as="geometry">
                        <mxPoint x="150" y="840" as="sourcePoint"/>
                        <mxPoint x="480" y="870" as="targetPoint"/>
                    </mxGeometry>
                </mxCell>
                <mxCell id="uiUT4wYT0IPATD-sSwbY-1" value="" style="group" parent="1" vertex="1" connectable="0">
                    <mxGeometry x="134" y="895" width="500" height="160" as="geometry"/>
                </mxCell>
                <mxCell id="uiUT4wYT0IPATD-sSwbY-2" value="" style="rounded=0;whiteSpace=wrap;html=1;container=0;" parent="uiUT4wYT0IPATD-sSwbY-1" vertex="1">
                    <mxGeometry width="500" height="160" as="geometry"/>
                </mxCell>
                <mxCell id="uiUT4wYT0IPATD-sSwbY-3" value="Legend" style="text;html=1;strokeColor=default;fillColor=none;align=center;verticalAlign=middle;whiteSpace=wrap;rounded=0;container=0;" parent="uiUT4wYT0IPATD-sSwbY-1" vertex="1">
                    <mxGeometry width="68.97196261682242" height="30" as="geometry"/>
                </mxCell>
                <mxCell id="uiUT4wYT0IPATD-sSwbY-4" value="A interact with B" style="text;html=1;strokeColor=none;fillColor=none;align=center;verticalAlign=middle;whiteSpace=wrap;rounded=0;container=0;" parent="uiUT4wYT0IPATD-sSwbY-1" vertex="1">
                    <mxGeometry x="108.64944598337956" y="120" width="103.90581717451524" height="30" as="geometry"/>
                </mxCell>
                <mxCell id="uiUT4wYT0IPATD-sSwbY-5" value="" style="endArrow=classic;html=1;" parent="uiUT4wYT0IPATD-sSwbY-1" target="uiUT4wYT0IPATD-sSwbY-4" edge="1">
                    <mxGeometry width="50" height="50" relative="1" as="geometry">
                        <mxPoint x="68.97631578947369" y="135" as="sourcePoint"/>
                        <mxPoint x="125.65221606648197" y="135" as="targetPoint"/>
                    </mxGeometry>
                </mxCell>
                <mxCell id="uiUT4wYT0IPATD-sSwbY-6" value="" style="endArrow=diamondThin;startArrow=diamondThin;html=1;startFill=0;endFill=0;shape=flexArrow;" parent="uiUT4wYT0IPATD-sSwbY-1" target="uiUT4wYT0IPATD-sSwbY-7" edge="1">
                    <mxGeometry width="50" height="50" relative="1" as="geometry">
                        <mxPoint x="359.9950138504155" y="72.5" as="sourcePoint"/>
                        <mxPoint x="284.4271468144044" y="72.5" as="targetPoint"/>
                    </mxGeometry>
                </mxCell>
                <mxCell id="uiUT4wYT0IPATD-sSwbY-7" value="HTTP" style="text;html=1;strokeColor=none;fillColor=none;align=center;verticalAlign=middle;whiteSpace=wrap;rounded=0;container=0;" parent="uiUT4wYT0IPATD-sSwbY-1" vertex="1">
                    <mxGeometry x="426.11689750692517" y="57.5" width="56.67590027700831" height="30" as="geometry"/>
                </mxCell>
                <mxCell id="uiUT4wYT0IPATD-sSwbY-8" value="" style="endArrow=oval;startArrow=oval;html=1;startFill=1;endFill=1;" parent="uiUT4wYT0IPATD-sSwbY-1" target="uiUT4wYT0IPATD-sSwbY-9" edge="1">
                    <mxGeometry width="50" height="50" relative="1" as="geometry">
                        <mxPoint x="273.3786980609418" y="135" as="sourcePoint"/>
                        <mxPoint x="216.70279778393353" y="135" as="targetPoint"/>
                    </mxGeometry>
                </mxCell>
                <mxCell id="uiUT4wYT0IPATD-sSwbY-9" value="DB Connector" style="text;html=1;strokeColor=none;fillColor=none;align=center;verticalAlign=middle;whiteSpace=wrap;rounded=0;container=0;" parent="uiUT4wYT0IPATD-sSwbY-1" vertex="1">
                    <mxGeometry x="311.1626315789473" y="120" width="94.45983379501385" height="30" as="geometry"/>
                </mxCell>
                <mxCell id="uiUT4wYT0IPATD-sSwbY-10" value="" style="ellipse;whiteSpace=wrap;html=1;rounded=0;strokeColor=default;container=0;" parent="uiUT4wYT0IPATD-sSwbY-1" vertex="1">
                    <mxGeometry x="23.422880886426555" y="52.5" width="73.6786703601108" height="40" as="geometry"/>
                </mxCell>
                <mxCell id="uiUT4wYT0IPATD-sSwbY-11" value="Process" style="text;html=1;strokeColor=none;fillColor=none;align=center;verticalAlign=middle;whiteSpace=wrap;rounded=0;container=0;" parent="uiUT4wYT0IPATD-sSwbY-1" vertex="1">
                    <mxGeometry x="97.10155124653735" y="57.5" width="56.67590027700831" height="30" as="geometry"/>
                </mxCell>
                <mxCell id="uiUT4wYT0IPATD-sSwbY-12" value="" style="shape=hexagon;perimeter=hexagonPerimeter2;whiteSpace=wrap;html=1;fixedSize=1;strokeColor=default;" parent="uiUT4wYT0IPATD-sSwbY-1" vertex="1">
                    <mxGeometry x="193" y="50" width="80" height="45" as="geometry"/>
                </mxCell>
                <mxCell id="uiUT4wYT0IPATD-sSwbY-13" value="Logic" style="text;html=1;strokeColor=none;fillColor=none;align=center;verticalAlign=middle;whiteSpace=wrap;rounded=0;" parent="uiUT4wYT0IPATD-sSwbY-1" vertex="1">
                    <mxGeometry x="273" y="57.5" width="60" height="30" as="geometry"/>
                </mxCell>
            </root>
        </mxGraphModel>
    </diagram>
</mxfile>